SplineFontDB: 3.0
FontName: Hermit
FullName: Hermit
FamilyName: Hermit
Weight: Medium
Copyright: Created by Pablo Caro <me@pcaro.es> - http://pcaro.es/\n\nUnder OFL 1.1 License.
UComments: "2013-9-8: Created." 
Version: 001.000
ItalicAngle: 0
UnderlinePosition: -102
UnderlineWidth: 51
Ascent: 768
Descent: 256
LayerCount: 2
Layer: 0 0 "Back"  1
Layer: 1 0 "Fore"  0
XUID: [1021 598 247783475 337180]
FSType: 8
OS2Version: 0
OS2_WeightWidthSlopeOnly: 0
OS2_UseTypoMetrics: 1
CreationTime: 1378631649
ModificationTime: 1378952063
PfmFamily: 49
TTFWeight: 500
TTFWidth: 5
LineGap: 94
VLineGap: 0
OS2TypoAscent: 0
OS2TypoAOffset: 1
OS2TypoDescent: 0
OS2TypoDOffset: 1
OS2TypoLinegap: 94
OS2WinAscent: 0
OS2WinAOffset: 1
OS2WinDescent: 0
OS2WinDOffset: 1
HheadAscent: 0
HheadAOffset: 1
HheadDescent: 0
HheadDOffset: 1
OS2Vendor: 'PfEd'
MarkAttachClasses: 1
DEI: 91125

StartChar: a
Encoding: 97 97 0
Width: 632
Flags: W
HStem: 0 92<187.558 460> 210 92<192.459 460> 420 92<197.374 414.771>
VStem: 80 92<110.228 190.214> 460 92<92 210 302 377.768>
CounterMasks: 1 e0
LayerCount: 2
Fore
SplineSet
172 151 m 4
 172 92 243 92 316 92 c 7
 359 92 388 92 435 92 c 6
 460 92 l 13
 460 210 l 21
 439 210 l 22
 402 210 359 210 316 210 c 4
 256 210 172 210 172 151 c 4
146 374 m 5
 105 451 l 5
 168 483 239 512 316 512 c 7
 537 512 552 346 552 302 c 4
 552 185 552 118 552 0 c 21
 438 0 l 6
 406 0 357 0 316 0 c 7
 172 0 80 37 80 151 c 7
 80 280 172 302 316 302 c 7
 346 302 393 302 442 302 c 6
 460 302 l 5
 460 400 393 420 316 420 c 5
 234 420 192 397 146 374 c 5
EndSplineSet
Validated: 1
EndChar

StartChar: b
Encoding: 98 98 1
Width: 632
VWidth: 999
Flags: W
HStem: 0 92<172 391.335> 420 92<172 391.335> 748 20G<80 172>
VStem: 80 92<92 420 512 768> 460 92<169.33 342.67>
LayerCount: 2
Fore
SplineSet
552 256 m 0
 552 256 552 0 316 0 c 3
 273 0 217 0 195 0 c 2
 80 0 l 9
 80 144 80 256 80 370 c 0
 80 413 80 613 80 768 c 25
 172 768 l 17
 172 745 172 707 172 640 c 0
 172 607 172 534 172 532 c 1
 172 512 l 1
 190 512 l 2
 222 512 272 512 316 512 c 3
 552 512 552 256 552 256 c 0
194 92 m 2
 316 92 l 3
 460 92 460 256 460 256 c 0
 460 256 460 420 316 420 c 0
 273 420 225 420 189 420 c 10
 189 420 181 420 172 420 c 9
 172 92 l 17
 194 92 l 2
EndSplineSet
Validated: 1
EndChar

StartChar: c
Encoding: 99 99 2
Width: 632
Flags: W
HStem: 0 92<239.765 432.373> 420 92<239.765 432.373>
VStem: 80 92<164.411 347.589> 460 92<122.064 164 348 389.936>
LayerCount: 2
Fore
SplineSet
552 164 m 1
 552 0 408 0 316 0 c 0
 172 0 80 92 80 256 c 0
 80 420 172 512 316 512 c 0
 408 512 552 512 552 348 c 1
 460 348 l 1
 460 420 362 420 316 420 c 0
 224 420 172 348 172 256 c 0
 172 164 224 92 316 92 c 0
 362 92 460 92 460 164 c 1
 552 164 l 1
EndSplineSet
Validated: 1
EndChar

StartChar: d
Encoding: 100 100 3
Width: 632
VWidth: 999
Flags: W
HStem: 0 92<240.665 460> 420 92<240.665 460> 748 20G<460 552>
VStem: 80 92<169.33 342.67> 460 92<92 420 512 768>
LayerCount: 2
Fore
SplineSet
80 256 m 0
 80 256 80 512 316 512 c 3
 360 512 410 512 442 512 c 2
 460 512 l 1
 460 532 l 1
 460 534 460 607 460 640 c 0
 460 707 460 745 460 768 c 9
 552 768 l 25
 552 613 552 413 552 370 c 0
 552 256 552 144 552 0 c 17
 437 0 l 2
 415 0 359 0 316 0 c 3
 80 0 80 256 80 256 c 0
438 92 m 2
 460 92 l 9
 460 420 l 17
 443 420 l 18
 407 420 359 420 316 420 c 0
 172 420 172 256 172 256 c 0
 172 256 172 92 316 92 c 3
 438 92 l 2
EndSplineSet
Validated: 1
EndChar

StartChar: e
Encoding: 101 101 4
Width: 632
Flags: W
HStem: 0 92<202.546 506> 210 92<172 460> 420 92<201.7 430.3>
VStem: 80 92<122.07 210 302 389.93> 460 92<302 389.93>
CounterMasks: 1 e0
LayerCount: 2
Fore
SplineSet
172 302 m 1
 460 302 l 1
 460 420 408 420 316 420 c 0
 224 420 172 420 172 302 c 1
316 512 m 0
 460 512 552 512 552 256 c 2
 552 210 l 1
 172 210 l 1
 172 92 224 92 316 92 c 2
 506 92 l 1
 506 0 l 1
 316 0 l 2
 172 0 80 0 80 256 c 3
 80 512 172 512 316 512 c 0
EndSplineSet
Validated: 1
EndChar

StartChar: f
Encoding: 102 102 5
Width: 632
Flags: W
HStem: 0 21G<105 197> 256 92<197 387> 676 92<242.229 459.626>
VStem: 105 92<0 256 348 633.768>
LayerCount: 2
Fore
SplineSet
105 512 m 2
 105 558 l 2
 105 602 120 768 341 768 c 0
 418 768 489 739 552 707 c 1
 511 630 l 1
 465 653 423 676 341 676 c 0
 264 676 197 656 197 558 c 9
 197 512 l 18
 197 348 l 29
 387 348 l 29
 387 256 l 29
 197 256 l 29
 197 0 l 25
 105 0 l 25
 105 0 105 349 105 512 c 2
EndSplineSet
Validated: 1
EndChar

StartChar: g
Encoding: 103 103 6
Width: 632
Flags: W
HStem: -256 92<197.374 414.771> 0 92<239.765 393.037> 420 92<239.765 392.235>
VStem: 80 92<164.411 347.589> 460 92<-121.768 42 163.68 346.858>
LayerCount: 2
Fore
SplineSet
552 0 m 2
 552 -46 l 2
 552 -90 537 -256 316 -256 c 0
 239 -256 168 -227 105 -195 c 1
 146 -118 l 1
 192 -141 234 -164 316 -164 c 0
 393 -164 460 -144 460 -46 c 9
 460 0 l 22
 460 42 l 1
 422 14 373 0 316 0 c 0
 172 0 80 92 80 256 c 0
 80 420 172 512 316 512 c 0
 460 512 552 420 552 256 c 1
 552 156 552 164 552 0 c 2
316 420 m 0
 224 420 172 348 172 256 c 0
 172 164 224 92 316 92 c 0
 408 92 460 164 460 256 c 0
 460 348 408 420 316 420 c 0
EndSplineSet
Validated: 1
EndChar

StartChar: h
Encoding: 104 104 7
Width: 632
VWidth: 999
Flags: W
HStem: 0 21G<80 172 460 552> 420 92<172 391.335> 748 20G<80 172>
VStem: 80 92<0 420 512 768> 460 92<0 342.67>
LayerCount: 2
Fore
SplineSet
552 0 m 25
 460 0 l 25
 460 100 460 161 460 256 c 0
 460 256 460 420 316 420 c 0
 273 420 225 420 189 420 c 10
 189 420 181 420 172 420 c 9
 172 0 l 17
 80 0 l 9
 80 144 80 256 80 370 c 0
 80 413 80 613 80 768 c 25
 172 768 l 17
 172 745 172 707 172 640 c 0
 172 607 172 534 172 532 c 1
 172 512 l 1
 190 512 l 2
 222 512 272 512 316 512 c 3
 552 512 552 256 552 256 c 0
 552 168 552 100 552 0 c 25
EndSplineSet
Validated: 1
EndChar

StartChar: i
Encoding: 105 105 8
Width: 632
Flags: W
HStem: 0 92<80 270 362 552> 420 92<126 270> 584 184<215.235 324.765>
VStem: 178 184<621.235 730.765> 270 92<92 420>
LayerCount: 2
Fore
SplineSet
270 768 m 0xe8
 316 768 362 722 362 676 c 0xf0
 362 630 316 584 270 584 c 0xe8
 224 584 178 630 178 676 c 0xf0
 178 722 224 768 270 768 c 0xe8
EndSplineSet
Refer: 48 -1 N 1 0 0 1 0 0 2
Validated: 1
EndChar

StartChar: j
Encoding: 106 106 9
Width: 632
Flags: W
HStem: -256 92<187.374 404.771> 420 92<162 450> 584 184<343.235 452.765>
VStem: 306 184<621.235 730.765> 450 92<-121.768 420>
LayerCount: 2
Fore
SplineSet
542 0 m 2xe8
 542 -46 l 2xe8
 542 -90 527 -256 306 -256 c 0
 229 -256 158 -227 95 -195 c 1
 136 -118 l 1
 182 -141 224 -164 306 -164 c 0xf0
 383 -164 450 -144 450 -46 c 9
 450 0 l 18
 450 420 l 25
 162 420 l 25
 162 512 l 25
 542 512 l 25
 542 0 l 2xe8
398 768 m 0
 444 768 490 722 490 676 c 0
 490 630 444 584 398 584 c 0
 352 584 306 630 306 676 c 0xf0
 306 722 352 768 398 768 c 0
EndSplineSet
Validated: 1
EndChar

StartChar: k
Encoding: 107 107 10
Width: 632
Flags: W
HStem: 0 21G<80 212.5 425.909 552> 492 20G<395.5 552> 748 20G<80 172>
VStem: 80 92<131 768>
LayerCount: 2
Fore
SplineSet
552 0 m 5
 440 0 l 5
 316 176 l 5
 275 117 233 59 192 0 c 5
 172 0 l 5
 80 0 l 5
 80 768 l 5
 80 768 136 768 172 768 c 5
 172 131 l 5
 261 258 351 385 440 512 c 5
 552 512 l 5
 492 427 432 341 372 256 c 5
 552 0 l 5
EndSplineSet
Validated: 1
EndChar

StartChar: l
Encoding: 108 108 11
Width: 632
Flags: W
HStem: 0 92<80 270 362 552> 676 92<178 270>
VStem: 270 92<92 676>
LayerCount: 2
Fore
SplineSet
178 768 m 0
 362 768 l 0
 362 92 l 0
 552 92 l 0
 552 0 l 0
 80 0 l 0
 80 92 l 0
 270 92 l 0
 270 676 l 0
 178 676 l 0
 178 768 l 0
EndSplineSet
Validated: 1
EndChar

StartChar: m
Encoding: 109 109 12
Width: 632
Flags: W
HStem: 0 21G<80 172 270 362 460 552> 420 92<185.916 270 362 446.084>
VStem: 80 92<0 406.084> 270 92<0 420> 460 92<0 406.084>
CounterMasks: 1 38
LayerCount: 2
Fore
SplineSet
172 0 m 1
 80 0 l 1
 80 276 l 2
 80 512 80 512 316 512 c 0
 552 512 552 512 552 276 c 2
 552 0 l 1
 460 0 l 1
 460 276 l 2
 460 420 460 420 362 420 c 1
 362 0 l 1
 270 0 l 1
 270 420 l 1
 172 418 172 420 172 276 c 2
 172 0 l 1
EndSplineSet
Validated: 1
EndChar

StartChar: n
Encoding: 110 110 13
Width: 632
Flags: W
HStem: 0 21G<80 172 460 552> 420 92<189.683 396.574>
VStem: 80 92<0 399.466> 460 92<0 354.741>
LayerCount: 2
Fore
SplineSet
172 0 m 5
 80 0 l 5
 80 71 80 187 80 276 c 4
 80 512 80 512 316 512 c 7
 552 512 552 276 552 276 c 4
 552 0 l 5
 460 0 l 5
 460 276 l 4
 460 276 460 420 316 420 c 7
 172 420 172 420 172 276 c 7
 172 192 172 71 172 0 c 5
EndSplineSet
Validated: 1
EndChar

StartChar: o
Encoding: 111 111 14
Width: 632
Flags: W
HStem: 0 92<207.483 424.517> 420 92<207.483 424.517>
VStem: 80 92<134.676 377.324> 460 92<134.676 377.324>
LayerCount: 2
Fore
SplineSet
552 256 m 0
 552 0 460 0 316 0 c 0
 172 0 80 0 80 256 c 0
 80 512 172 512 316 512 c 0
 460 512 552 512 552 256 c 0
316 420 m 4
 224 420 172 420 172 256 c 0
 172 92 224 92 316 92 c 0
 408 92 460 92 460 256 c 3
 460 420 408 420 316 420 c 4
EndSplineSet
Validated: 1
EndChar

StartChar: p
Encoding: 112 112 15
Width: 632
VWidth: 999
Flags: W
HStem: 0 92<172 391.335> 420 92<172 391.335>
VStem: 80 92<-256 0 92 420> 460 92<169.33 342.67>
LayerCount: 2
Fore
SplineSet
552 256 m 0
 552 256 552 0 316 0 c 0
 272 0 222 0 190 0 c 2
 172 0 l 1
 172 -20 l 1
 172 -22 172 -95 172 -128 c 0
 172 -195 172 -233 172 -256 c 9
 80 -256 l 25
 80 -101 80 99 80 142 c 0
 80 256 80 368 80 512 c 17
 195 512 l 2
 217 512 273 512 316 512 c 0
 552 512 552 256 552 256 c 0
194 420 m 2
 172 420 l 9
 172 92 l 17
 189 92 l 18
 225 92 273 92 316 92 c 0
 460 92 460 256 460 256 c 0
 460 256 460 420 316 420 c 0
 194 420 l 2
EndSplineSet
Validated: 1
EndChar

StartChar: q
Encoding: 113 113 16
Width: 632
VWidth: 999
Flags: W
HStem: 0 92<240.665 460> 420 92<240.665 460>
VStem: 80 92<169.33 342.67> 460 92<-256 0 92 420>
LayerCount: 2
Fore
SplineSet
80 256 m 0
 80 256 80 512 316 512 c 0
 359 512 415 512 437 512 c 2
 552 512 l 9
 552 368 552 256 552 142 c 0
 552 99 552 -101 552 -256 c 25
 460 -256 l 17
 460 -233 460 -195 460 -128 c 0
 460 -95 460 -22 460 -20 c 1
 460 0 l 1
 442 0 l 2
 410 0 360 0 316 0 c 0
 80 0 80 256 80 256 c 0
438 420 m 2
 316 420 l 0
 172 420 172 256 172 256 c 0
 172 256 172 92 316 92 c 0
 359 92 407 92 443 92 c 10
 443 92 451 92 460 92 c 9
 460 420 l 17
 438 420 l 2
EndSplineSet
Validated: 1
EndChar

StartChar: r
Encoding: 114 114 17
Width: 632
Flags: W
HStem: 0 21G<80 172> 420 92<190.449 432.373>
VStem: 80 92<0 397.108> 460 92<348 389.936>
LayerCount: 2
Fore
SplineSet
172 256 m 2
 172 0 l 25
 80 0 l 25
 80 256 l 2
 80 512 80 512 316 512 c 0
 408 512 552 512 552 348 c 1
 460 348 l 1
 460 420 362 420 316 420 c 0
 172 420 172 420 172 256 c 2
EndSplineSet
Validated: 1
EndChar

StartChar: s
Encoding: 115 115 18
Width: 632
Flags: W
HStem: -0 92<185.816 446.184> 210 92<184.073 447.927> 420 92<185.816 446.184>
VStem: 80 92<106.675 151 316.54 405.46> 460 92<106.54 195.46 361 405.325>
CounterMasks: 1 e0
LayerCount: 2
Fore
SplineSet
80 361 m 0
 80 512 172 512 316 512 c 0
 460 512 552 512 552 361 c 1
 460 361 l 1
 460 420 408 420 316 420 c 0
 224 420 172 420 172 361 c 0
 172 302 224 302 316 302 c 3
 425 302 552 302 552 151 c 0
 552 0 460 0 316 -0 c 0
 172 0 80 0 80 151 c 1
 172 151 l 1
 172 92 224 92 316 92 c 0
 408 92 460 92 460 151 c 0
 460 210 408 210 316 210 c 3
 207 210 80 210 80 361 c 0
EndSplineSet
Validated: 1
EndChar

StartChar: t
Encoding: 116 116 19
Width: 632
Flags: W
HStem: 0 92<242.229 459.626> 420 92<197 485> 748 20G<105 197>
VStem: 105 92<134.232 420 512 768>
LayerCount: 2
Fore
SplineSet
197 256 m 10
 197 210 l 17
 197 112 264 92 341 92 c 0
 423 92 465 115 511 138 c 1
 552 61 l 1
 489 29 418 0 341 0 c 0
 120 0 105 166 105 210 c 2
 105 256 l 2
 105 768 l 25
 197 768 l 25
 197 512 l 25
 485 512 l 25
 485 420 l 25
 197 420 l 25
 197 420 197 309 197 256 c 10
EndSplineSet
Validated: 1
EndChar

StartChar: u
Encoding: 117 117 20
Width: 632
Flags: W
HStem: 0 92<235.426 442.317> 492 20G<80 172 460 552>
VStem: 80 92<157.259 512> 460 92<112.534 512>
LayerCount: 2
Fore
SplineSet
460 512 m 1
 552 512 l 1
 552 441 552 325 552 236 c 0
 552 0 552 0 316 0 c 3
 80 0 80 236 80 236 c 0
 80 512 l 1
 172 512 l 1
 172 236 l 0
 172 236 172 92 316 92 c 3
 460 92 460 92 460 236 c 3
 460 320 460 441 460 512 c 1
EndSplineSet
Validated: 1
EndChar

StartChar: v
Encoding: 118 118 21
Width: 632
Flags: W
HStem: 0 21G<259.695 372.305> 492 20G<80 186.23 445.77 552>
LayerCount: 2
Fore
SplineSet
365 0 m 1
 267 0 l 1
 80 512 l 1
 179 512 l 1
 316 133 l 1
 453 512 l 5
 552 512 l 1
 365 0 l 1
EndSplineSet
Validated: 1
EndChar

StartChar: w
Encoding: 119 119 22
Width: 632
Flags: W
HStem: 0 21G<135.734 237.967 394.033 496.266> 492 20G<80 175.267 456.733 552>
LayerCount: 2
Fore
SplineSet
207 212 m 1
 270 394 l 1
 362 394 l 1
 425 212 l 1
 459 512 l 1
 552 512 l 1
 494 0 l 1
 401 0 l 1
 316 244 l 5
 231 0 l 1
 138 0 l 1
 80 512 l 1
 173 512 l 1
 207 212 l 1
EndSplineSet
Validated: 1
EndChar

StartChar: x
Encoding: 120 120 23
Width: 632
Flags: W
HStem: 0 21G<80 206.091 425.909 552> 492 20G<80 206.091 425.909 552>
LayerCount: 2
Fore
SplineSet
260 256 m 1
 80 512 l 1
 192 512 l 1
 316 336 l 1
 440 512 l 1
 552 512 l 1
 372 256 l 1
 552 0 l 1
 440 0 l 1
 316 176 l 1
 192 0 l 1
 80 0 l 1
 260 256 l 1
EndSplineSet
Validated: 1
EndChar

StartChar: y
Encoding: 121 121 24
Width: 632
Flags: W
HStem: 492 20G<80 186.23 445.77 552>
LayerCount: 2
Fore
SplineSet
267 0 m 1
 80 512 l 1
 179 512 l 1
 316 133 l 1
 453 512 l 5
 552 512 l 1
 365 0 l 1
 271 -256 l 1
 174 -256 l 1
 267 0 l 1
EndSplineSet
Validated: 1
EndChar

StartChar: z
Encoding: 122 122 25
Width: 632
Flags: W
HStem: 0 92<257 552> 420 92<80 375>
LayerCount: 2
Fore
SplineSet
257 92 m 1
 552 92 l 5
 552 0 l 5
 80 0 l 1
 178 140 277 280 375 420 c 1
 80 420 l 1
 80 512 l 1
 552 512 l 1
 454 372 355 232 257 92 c 1
EndSplineSet
Validated: 1
EndChar

StartChar: braceleft
Encoding: 123 123 26
Width: 632
Flags: W
HStem: -92 92<379.254 512> 292 92<120 254.55> 676 92<379.254 512>
VStem: 270 92<21.8878 275.323 400.677 654.112>
CounterMasks: 1 e0
LayerCount: 2
Fore
SplineSet
120 292 m 1
 120 292 120 340 120 384 c 1
 270 384 270 384 270 530 c 0
 270 767 362 768 512 768 c 1
 512 676 l 1
 362 676 362 675 362 530 c 0
 362 430 362 372 344 338 c 1
 362 304 362 246 362 146 c 0
 362 1 362 0 512 0 c 1
 512 -92 l 1
 362 -92 270 -91 270 146 c 0
 270 292 270 292 120 292 c 1
EndSplineSet
Validated: 1
EndChar

StartChar: braceright
Encoding: 125 125 27
Width: 632
Flags: W
HStem: -92 92<120 252.746> 292 92<377.45 512> 676 92<120 252.746>
VStem: 270 92<21.8878 275.323 400.677 654.112>
CounterMasks: 1 e0
LayerCount: 2
Fore
SplineSet
512 292 m 1
 362 292 362 292 362 146 c 0
 362 -91 270 -92 120 -92 c 1
 120 0 l 1
 270 0 270 1 270 146 c 0
 270 246 270 304 288 338 c 1
 270 372 270 430 270 530 c 0
 270 675 270 676 120 676 c 1
 120 768 l 1
 270 768 362 767 362 530 c 0
 362 384 362 384 512 384 c 1
 512 292 l 1
EndSplineSet
Validated: 1
EndChar

StartChar: bracketleft
Encoding: 91 91 28
Width: 632
Flags: W
HStem: -92 92<212 512> 676 92<212 512>
VStem: 120 92<0 676>
LayerCount: 2
Fore
SplineSet
120 768 m 0
 512 768 l 0
 512 676 l 0
 212 676 l 0
 212 0 l 0
 512 0 l 0
 512 -92 l 0
 120 -92 l 0
 120 768 l 0
EndSplineSet
Validated: 1
EndChar

StartChar: bracketright
Encoding: 93 93 29
Width: 632
Flags: W
HStem: -92 92<120 420> 676 92<120 420>
VStem: 420 92<0 676>
LayerCount: 2
Fore
SplineSet
512 768 m 0
 512 -92 l 0
 120 -92 l 0
 120 0 l 0
 420 0 l 0
 420 676 l 0
 120 676 l 0
 120 768 l 0
 512 768 l 0
EndSplineSet
Validated: 1
EndChar

StartChar: quotesingle
Encoding: 39 39 32
Width: 632
Flags: W
HStem: 748 20G<293 339>
VStem: 270 92<442.544 758.19>
LayerCount: 2
Fore
SplineSet
362 688 m 0
 362 596 362 420 316 420 c 3
 270 420 270 596 270 688 c 0
 270 688 270 768 316 768 c 0
 362 768 362 688 362 688 c 0
EndSplineSet
Validated: 1
EndChar

StartChar: parenleft
Encoding: 40 40 33
Width: 632
Flags: W
HStem: -92 92<396.93 512> 676 92<396.93 512>
VStem: 120 93<211.312 464.688>
LayerCount: 2
Fore
SplineSet
512 0 m 0
 512 -92 l 0
 120 -92 120 338 120 338 c 3
 120 338 120 768 512 768 c 0
 512 676 l 0
 213 676 213 342 213 338 c 0
 213 334 213 0 512 0 c 0
EndSplineSet
Validated: 1
EndChar

StartChar: parenright
Encoding: 41 41 34
Width: 632
Flags: W
HStem: -92 92<120 235.07> 676 92<120 235.07>
VStem: 419 93<211.312 464.688>
LayerCount: 2
Fore
SplineSet
120 0 m 0
 419 0 419 334 419 338 c 0
 419 342 419 676 120 676 c 0
 120 768 l 0
 512 768 512 338 512 338 c 0
 512 338 512 -92 120 -92 c 0
 120 0 l 0
EndSplineSet
Validated: 1
EndChar

StartChar: asterisk
Encoding: 42 42 35
Width: 632
Flags: W
VStem: 270 92<174 341 519 686>
LayerCount: 2
Fore
SplineSet
80 540 m 1
 133 615 l 1
 270 519 l 1
 270 686 l 1
 362 686 l 1
 362 519 l 1
 499 615 l 1
 552 540 l 1
 396 430 l 1
 552 320 l 1
 499 245 l 1
 362 341 l 1
 362 174 l 5
 270 174 l 5
 270 341 l 1
 133 245 l 1
 80 320 l 1
 236 430 l 1
 80 540 l 1
EndSplineSet
Validated: 1
EndChar

StartChar: plus
Encoding: 43 43 36
Width: 632
Flags: W
HStem: 384 92<80 270 362 552>
VStem: 270 92<174 384 476 686>
LayerCount: 2
Fore
SplineSet
552 476 m 1
 552 384 l 1
 362 384 l 1
 362 174 l 5
 270 174 l 5
 270 384 l 1
 80 384 l 1
 80 476 l 1
 270 476 l 1
 270 686 l 1
 362 686 l 1
 362 476 l 1
 552 476 l 1
EndSplineSet
Validated: 1
EndChar

StartChar: hyphen
Encoding: 45 45 37
Width: 632
Flags: W
HStem: 420 92<80 552>
LayerCount: 2
Fore
SplineSet
80 512 m 0
 552 512 l 0
 552 420 l 0
 80 420 l 0
 80 512 l 0
EndSplineSet
Validated: 1
EndChar

StartChar: period
Encoding: 46 46 38
Width: 632
Flags: W
HStem: 0 184<261.235 370.765>
VStem: 224 184<37.2351 146.765>
LayerCount: 2
Fore
SplineSet
316 184 m 4
 362 184 408 138 408 92 c 0
 408 46 362 0 316 0 c 0
 270 0 224 46 224 92 c 0
 224 138 270 184 316 184 c 4
EndSplineSet
Validated: 1
EndChar

StartChar: B
Encoding: 66 66 40
Width: 632
Flags: W
HStem: 0 92<172 393.898> 396 68<172 378.219> 676 92<172 378.715>
VStem: 80 92<92 396 464 676> 414 92<501.614 637.034> 460 92<161.393 327.116>
LayerCount: 2
Fore
SplineSet
172 92 m 1xf4
 220 92 268 92 316 92 c 0
 460 92 460 244 460 244 c 1
 460 244 460 396 316 396 c 2
 172 396 l 1
 172 92 l 1xf4
80 396 m 1
 80 464 l 1
 80 768 l 1
 316 768 l 2
 506 768 506 570 506 570 c 1xf8
 506 570 506 470 443 435 c 1
 552 375 552 244 552 244 c 2
 552 244 552 0 316 0 c 2
 80 0 l 1
 80 396 l 1
316 464 m 0
 414 464 414 570 414 570 c 1
 414 570 414 676 316 676 c 2
 172 676 l 1
 172 464 l 1
 220 464 268 464 316 464 c 0
EndSplineSet
Validated: 1
EndChar

StartChar: C
Encoding: 67 67 41
Width: 632
Flags: W
HStem: 0 92<245.757 432.373> 676 92<245.757 432.373>
VStem: 80 92<193.276 574.724> 460 92<122.064 164 604 645.936>
LayerCount: 2
Fore
SplineSet
552 164 m 5
 552 0 408 0 316 0 c 4
 172 0 80 92 80 384 c 4
 80 676 172 768 316 768 c 4
 408 768 552 768 552 604 c 5
 460 604 l 5
 460 676 362 676 316 676 c 4
 224 676 172 604 172 384 c 4
 172 164 224 92 316 92 c 4
 362 92 460 92 460 164 c 5
 552 164 l 5
EndSplineSet
Validated: 1
EndChar

StartChar: D
Encoding: 68 68 42
Width: 632
VWidth: 999
Flags: W
HStem: 0 92<172 373.502> 676 92<172 373.502>
VStem: 80 92<92 676> 460 92<227.812 540.188>
LayerCount: 2
Fore
SplineSet
172 768 m 1
 190 768 l 2
 222 768 272 768 316 768 c 3
 552 768 552 384 552 384 c 0
 552 384 552 0 316 0 c 3
 273 0 217 0 195 0 c 2
 80 0 l 9
 80 244 80 512 80 626 c 0
 80 669 80 713 80 768 c 25
 172 768 l 1
194 92 m 2
 316 92 l 3
 460 92 460 384 460 384 c 0
 460 384 460 676 316 676 c 0
 273 676 225 676 189 676 c 10
 189 676 181 676 172 676 c 9
 172 92 l 17
 194 92 l 2
EndSplineSet
Validated: 1
EndChar

StartChar: E
Encoding: 69 69 43
Width: 632
Flags: W
HStem: 0 92<172 552> 338 92<172 362> 676 92<172 552>
VStem: 80 92<92 338 430 676>
CounterMasks: 1 e0
LayerCount: 2
Fore
SplineSet
80 768 m 1
 552 768 l 1
 552 676 l 5
 172 676 l 5
 172 430 l 1
 362 430 l 1
 362 338 l 1
 172 338 l 1
 172 92 l 1
 552 92 l 1
 552 0 l 1
 80 0 l 1
 80 768 l 1
EndSplineSet
Validated: 1
EndChar

StartChar: F
Encoding: 70 70 44
Width: 632
Flags: W
HStem: 0 21G<80 172> 338 92<172 362> 676 92<172 552>
VStem: 80 92<0 338 430 676>
LayerCount: 2
Fore
SplineSet
80 768 m 1
 552 768 l 1
 552 676 l 5
 172 676 l 5
 172 430 l 1
 362 430 l 1
 362 338 l 1
 172 338 l 1
 172 0 l 1
 80 0 l 1
 80 768 l 1
EndSplineSet
Validated: 1
EndChar

StartChar: L
Encoding: 76 76 45
Width: 632
Flags: W
HStem: 0 92<172 552> 748 20G<80 172>
VStem: 80 92<92 768>
LayerCount: 2
Fore
SplineSet
80 768 m 29
 172 768 l 29
 172 92 l 29
 552 89 l 29
 552 0 l 29
 80 0 l 29
 80 768 l 29
EndSplineSet
Validated: 1
EndChar

StartChar: T
Encoding: 84 84 46
Width: 632
Flags: W
HStem: 0 21G<270 362> 686 82<80 270 362 552>
VStem: 270 92<0 686>
LayerCount: 2
Fore
SplineSet
80 768 m 4
 552 768 l 4
 552 686 l 4
 362 686 l 4
 362 0 l 4
 270 0 l 4
 270 686 l 4
 80 686 l 4
 80 768 l 4
EndSplineSet
Validated: 1
EndChar

StartChar: underscore
Encoding: 95 95 47
Width: 632
Flags: W
HStem: -92 92<80 552>
LayerCount: 2
Fore
SplineSet
80 0 m 0
 552 0 l 0
 552 -92 l 0
 80 -92 l 0
 80 0 l 0
EndSplineSet
Validated: 1
EndChar

StartChar: virtual.i
Encoding: 256 -1 48
Width: 632
Flags: W
HStem: 0 92<80 270 362 552> 420 92<126 270>
VStem: 270 92<92 420>
LayerCount: 2
Fore
SplineSet
126 512 m 4
 362 512 l 0
 362 92 l 0
 552 92 l 0
 552 0 l 0
 80 0 l 0
 80 92 l 0
 270 92 l 0
 270 420 l 0
 126 420 l 4
 126 512 l 4
EndSplineSet
Validated: 1
Comment: "This glyph is used as reference to i-based glyphs." 
EndChar

StartChar: exclam
Encoding: 33 33 81
Width: 632
VWidth: 0
Flags: W
HStem: -92 184<261.235 370.765> 748 20G<270 362>
VStem: 224 184<-54.7649 54.7649> 270 92<256 768>
LayerCount: 2
Fore
SplineSet
316 92 m 4xe0
 362 92 408 46 408 0 c 4
 408 -46 362 -92 316 -92 c 4
 270 -92 224 -46 224 0 c 4
 224 46 270 92 316 92 c 4xe0
270 768 m 25xd0
 362 768 l 25
 362 256 l 25
 270 256 l 25
 270 768 l 25xd0
EndSplineSet
Validated: 1
EndChar

StartChar: numbersign
Encoding: 35 35 82
Width: 632
VWidth: 0
Flags: W
HStem: 0 21G<172 264 368 460> 164 92<80 172 264 368 460 552> 512 92<80 172 264 368 460 552> 748 20G<172 264 368 460>
VStem: 172 92<0 164 256 512 604 768> 368 92<0 164 256 512 604 768>
LayerCount: 2
Fore
SplineSet
172 768 m 5
 264 768 l 5
 264 604 l 5
 368 604 l 5
 368 768 l 5
 460 768 l 5
 460 604 l 5
 552 604 l 5
 552 512 l 5
 460 512 l 5
 460 256 l 5
 552 256 l 5
 552 164 l 5
 460 164 l 5
 460 0 l 5
 368 0 l 5
 368 164 l 5
 264 164 l 5
 264 0 l 5
 172 0 l 5
 172 164 l 5
 80 164 l 5
 80 256 l 5
 172 256 l 5
 172 512 l 5
 80 512 l 5
 80 604 l 5
 172 604 l 5
 172 768 l 5
368 512 m 5
 264 512 l 5
 264 256 l 5
 368 256 l 5
 368 512 l 5
EndSplineSet
Validated: 1
EndChar

StartChar: dollar
Encoding: 36 36 83
Width: 632
Flags: W
HStem: 0 21G<270 362> 92 92<186.623 270 362 445.377> 338 92<187.436 270 362 444.564> 584 92<186.623 270 362 432.161> 748 20G<270 362>
VStem: 80 92<200.631 263 443.044 569.412> 270 92<0 92 184 338 430 584 676 768> 460 92<198.588 324.956 505 555.132>
CounterMasks: 1 07
LayerCount: 2
Fore
SplineSet
270 768 m 1
 362 768 l 1
 362 676 l 1
 479 674 552 676 552 505 c 1
 460 505 l 1
 460 553 425 582 362 584 c 1
 362 430 l 1
 458 427 552 430 552 263 c 0
 552 92 479 94 362 92 c 1
 362 0 l 1
 270 0 l 1
 270 92 l 1
 153 94 80 92 80 263 c 1
 172 263 l 1
 172 184 207 186 270 184 c 1
 270 338 l 1
 174 341 80 338 80 505 c 0
 80 676 153 674 270 676 c 1
 270 768 l 1
270 584 m 1
 207 582 172 584 172 505 c 0
 172 430 207 432 270 430 c 1
 270 584 l 1
362 184 m 1
 425 186 460 184 460 263 c 0
 460 338 425 336 362 338 c 1
 362 184 l 1
EndSplineSet
Validated: 1
EndChar

StartChar: percent
Encoding: 37 37 84
Width: 632
VWidth: 0
Flags: W
HStem: 0 64<375.86 472.14> 192 64<375.86 471.922> 512 64<159.86 256.14> 704 64<159.86 255.922>
VStem: 80 64<590.878 689.122> 272 64<590.878 689.122> 296 64<78.8779 177.122> 488 64<77.6089 177.122>
LayerCount: 2
Fore
SplineSet
208 512 m 0xfd
 80 512 80 640 80 640 c 0
 80 640 80 768 208 768 c 0
 336 768 336 640 336 640 c 0
 336 640 336 512 208 512 c 0xfd
144 640 m 0
 144 640 144 576 208 576 c 3
 272 576 272 640 272 640 c 0
 272 640 271 704 208 704 c 0
 144 704 144 640 144 640 c 0
424 0 m 0
 296 0 296 128 296 128 c 0xfb
 296 128 296 256 424 256 c 0
 552 256 552 128 552 128 c 0
 552 125 552 0 424 0 c 0
360 128 m 4
 360 128 360 64 424 64 c 7
 488 64 488 128 488 128 c 4
 488 128 487 192 424 192 c 4
 360 192 360 128 360 128 c 4
218 0 m 1
 184 0 154 0 120 0 c 1
 414 768 l 1
 512 768 l 1
 218 0 l 1
EndSplineSet
Validated: 1
EndChar

StartChar: ampersand
Encoding: 38 38 85
Width: 632
VWidth: 999
Flags: W
HStem: 0 92<211.569 417.676> 512 21G<362 454> 598 92<200.611 336.374>
VStem: 80 92<130.134 334.312 466.356 568.32> 362 92<512 571.917> 460 92<0 37.1418 208.75 320>
LayerCount: 2
Fore
SplineSet
454 512 m 1
 362 512 l 1
 362 598 280 598 270 598 c 0
 261 598 172 598 172 512 c 0
 172 452 343 339 456 206 c 1
 460 233 460 260 460 283 c 0
 460 298 460 311 460 320 c 1
 552 320 l 1
 552 237 537 172 515 123 c 1
 538 83 552 42 552 0 c 1
 460 0 l 1
 460 13 458 26 455 39 c 1
 425 12 392 0 362 0 c 0
 129 0 80 53 80 256 c 0
 80 327 108 370 136 396 c 1
 102 434 80 473 80 512 c 1
 80 512 80 690 270 690 c 0
 454 690 454 512 454 512 c 1
196 336 m 1
 178 321 172 306 172 256 c 0
 172 113 190 92 362 92 c 0
 387 92 406 101 420 116 c 1
 367 195 272 266 196 336 c 1
EndSplineSet
Validated: 1
EndChar

StartChar: comma
Encoding: 44 44 86
Width: 632
Flags: W
HStem: -164 348<270 362>
VStem: 224 184<40.1636 146.765>
LayerCount: 2
Fore
SplineSet
307 1 m 1
 264 7 224 49 224 92 c 0
 224 138 270 184 316 184 c 0
 362 184 408 138 408 92 c 0
 408 -13 362 -164 224 -164 c 0
 217 -164 215 -163 215 -161 c 0
 215 -151 282 -114 307 1 c 1
EndSplineSet
Validated: 1
EndChar

StartChar: slash
Encoding: 47 47 87
Width: 632
VWidth: 0
Flags: W
HStem: 0 21G<120 225.656> 748 20G<406.344 512>
LayerCount: 2
Fore
SplineSet
218 0 m 5
 184 0 154 0 120 0 c 5
 414 768 l 5
 512 768 l 5
 218 0 l 5
EndSplineSet
Validated: 1
EndChar

StartChar: zero
Encoding: 48 48 88
Width: 632
Flags: W
HStem: 0 92<222.839 409.172> 676 92<222.828 409.259>
VStem: 80 92<256.948 605.355> 460 92<162.645 510.552>
LayerCount: 2
Fore
SplineSet
552 384 m 0
 552 0 460 0 316 0 c 0
 172 0 80 0 80 384 c 0
 80 768 172 768 316 768 c 0
 460 768 552 768 552 384 c 0
455 512 m 1
 207 133 l 1
 230 96 258 92 316 92 c 0
 408 92 460 92 460 384 c 0
 460 436 458 477 455 512 c 1
425 635 m 1
 402 672 376 676 316 676 c 0
 224 676 172 676 172 384 c 0
 172 332 174 290 177 255 c 1
 425 635 l 1
EndSplineSet
Validated: 1
EndChar

StartChar: one
Encoding: 49 49 89
Width: 632
VWidth: 0
Flags: W
HStem: 0 21G<362 454> 748 20G<325.635 454>
VStem: 362 92<0 640>
LayerCount: 2
Fore
SplineSet
193 406 m 1
 80 406 l 17
 340 768 l 1
 378 768 416 768 454 768 c 1
 454 0 l 1
 362 0 l 1
 362 640 l 1
 193 406 l 1
EndSplineSet
Validated: 1
EndChar

StartChar: two
Encoding: 50 50 90
Width: 632
VWidth: 0
Flags: W
HStem: 0 92<226 552> 512 21G<80 172> 676 92<221.908 410.092>
VStem: 80 92<512 625.878> 460 92<449.064 626.98>
LayerCount: 2
Fore
SplineSet
226 92 m 1
 552 92 l 1
 552 0 l 1
 395 0 129 0 80 0 c 1
 80 17 80 61 80 92 c 1
 80 92 460 384 460 512 c 0
 460 586 460 676 316 676 c 0
 172 676 172 584 172 512 c 1
 80 512 l 1
 80 635 80 768 316 768 c 0
 552 768 552 624 552 512 c 0
 552 354 226 92 226 92 c 1
EndSplineSet
Validated: 1
EndChar

StartChar: three
Encoding: 51 51 91
Width: 632
Flags: W
HStem: -0 92<224.159 407.841> 362 92<316 393.219> 676 92<237.184 394.816>
VStem: 80 92<144.741 227> 103 92<565 634.32> 437 92<495.357 635.165> 460 92<144.298 309.749>
LayerCount: 2
Fore
SplineSet
552 227 m 0xe2
 552 104 460 0 316 -0 c 0
 172 0 80 104 80 227 c 1
 172 227 l 1
 172 135 224 92 316 92 c 0
 408 92 460 135 460 227 c 0xf2
 460 319 408 362 316 362 c 1
 316 454 l 1
 388 454 437 493 437 565 c 0
 437 637 388 676 316 676 c 0
 244 676 195 637 195 565 c 1
 103 565 l 1
 103 688 172 768 316 768 c 0
 460 768 529 688 529 565 c 0xec
 529 479 487 439 460 408 c 1
 487 377 552 348 552 227 c 0xe2
EndSplineSet
Validated: 1
EndChar

StartChar: four
Encoding: 52 52 92
Width: 632
VWidth: 0
Flags: W
HStem: 0 21G<460 552> 292 92<205 460> 748 20G<419.354 552>
VStem: 460 92<0 292 384 656>
LayerCount: 2
Fore
SplineSet
552 768 m 5
 552 0 l 5
 460 0 l 5
 460 292 l 5
 80 292 l 5
 80 384 l 5
 438 768 l 5
 476 768 514 768 552 768 c 5
460 384 m 5
 460 656 l 5
 205 384 l 5
 460 384 l 5
EndSplineSet
Validated: 1
EndChar

StartChar: five
Encoding: 53 53 93
Width: 632
Flags: W
HStem: 0 92<80 396.978> 384 92<172 402.616> 676 92<172 485>
VStem: 80 92<476 676> 460 92<153.892 327.677>
LayerCount: 2
Fore
SplineSet
80 384 m 1
 80 768 l 1
 485 768 l 1
 485 676 l 1
 172 676 l 1
 172 476 l 1
 316 476 l 2
 460 476 552 388 552 238 c 0
 552 115 460 0 316 0 c 2
 80 0 l 1
 80 92 l 1
 316 92 l 2
 408 92 460 151 460 238 c 0
 460 325 419 384 316 384 c 2
 80 384 l 1
EndSplineSet
Validated: 1
EndChar

StartChar: six
Encoding: 54 54 94
Width: 632
Flags: W
HStem: 0 92<229.696 402.304> 384 92<230.246 402.304> 676 92<246.469 404.01>
VStem: 80 92<151.375 324.625 425 567.188> 427 92<616 652.375> 460 92<150.856 325.144>
LayerCount: 2
Fore
SplineSet
316 92 m 0xf4
 408 92 460 146 460 238 c 0
 460 330 408 384 316 384 c 0
 224 384 172 330 172 238 c 0
 172 146 224 92 316 92 c 0xf4
80 384 m 2
 80 676 172 768 316 768 c 0
 460 768 519 686 519 616 c 1
 427 616 l 1xf8
 427 633 408 676 316 676 c 0
 231 676 179 613 173 425 c 1
 198 450 260 476 316 476 c 0
 460 476 552 384 552 238 c 0
 552 92 460 0 316 0 c 0
 172 0 80 92 80 238 c 2
 80 384 l 2
EndSplineSet
Validated: 1
EndChar

StartChar: seven
Encoding: 55 55 95
Width: 632
VWidth: 0
Flags: W
HStem: 0 21G<80 243.5> 676 92<80 406>
LayerCount: 2
Fore
SplineSet
80 768 m 1
 237 768 395 768 552 768 c 1
 429 512 305 256 182 0 c 1
 148 0 114 0 80 0 c 1
 406 676 l 1
 80 676 l 1
 80 768 l 1
EndSplineSet
Validated: 1
EndChar

StartChar: eight
Encoding: 56 56 96
Width: 632
Flags: W
HStem: -0 92<224.159 407.841> 362 92<238.781 393.219> 676 92<237.184 394.816>
VStem: 80 92<144.298 309.967> 103 92<495.357 635.165> 437 92<495.357 635.165> 460 92<144.298 309.749>
LayerCount: 2
Fore
SplineSet
316 676 m 0xec
 244 676 195 637 195 565 c 0
 195 493 244 454 316 454 c 0
 388 454 437 493 437 565 c 0
 437 637 388 676 316 676 c 0xec
552 227 m 0xe2
 552 104 460 0 316 -0 c 0
 172 0 80 104 80 227 c 0
 80 349 145 377 172 408 c 1xf2
 145 439 103 479 103 565 c 0
 103 688 172 768 316 768 c 0
 460 768 529 688 529 565 c 0xec
 529 479 487 439 460 408 c 1
 487 377 552 348 552 227 c 0xe2
316 362 m 0
 224 362 172 319 172 227 c 0
 172 135 224 92 316 92 c 0
 408 92 460 135 460 227 c 0
 460 319 408 362 316 362 c 0
EndSplineSet
Validated: 1
EndChar

StartChar: nine
Encoding: 57 57 97
Width: 632
Flags: W
HStem: 0 21G<460 552> 292 92<229.696 402.39> 676 92<229.696 402.304>
VStem: 80 92<442.856 617.144> 460 92<0 344 443.375 616.625>
LayerCount: 2
Fore
SplineSet
316 676 m 0
 224 676 172 622 172 530 c 0
 172 438 224 384 316 384 c 0
 408 384 460 438 460 530 c 0
 460 622 408 676 316 676 c 0
460 344 m 1
 436 319 373 292 316 292 c 0
 172 292 80 384 80 530 c 0
 80 676 172 768 316 768 c 4
 460 768 552 676 552 530 c 2
 552 0 l 1
 460 0 l 1
 460 344 l 1
EndSplineSet
Validated: 1
EndChar

StartChar: less
Encoding: 60 60 100
Width: 632
Flags: W
LayerCount: 2
Fore
SplineSet
120 338 m 5
 120 430 l 5
 512 640 l 5
 512 535 l 5
 230 384 l 5
 512 233 l 5
 512 128 l 5
 120 338 l 5
EndSplineSet
Validated: 1
EndChar

StartChar: greater
Encoding: 62 62 101
Width: 632
Flags: W
LayerCount: 2
Fore
SplineSet
512 338 m 5
 120 128 l 5
 120 233 l 5
 402 384 l 5
 120 535 l 5
 120 640 l 5
 512 430 l 5
 512 338 l 5
EndSplineSet
Validated: 1
EndChar

StartChar: question
Encoding: 63 63 102
Width: 632
Flags: W
HStem: -92 184<261.235 370.765> 384 92<362 435.058> 676 92<197.198 434.802>
VStem: 80 92<576 651.586> 224 184<-54.7649 54.7649> 270 92<256 384> 460 92<500.514 652.128>
LayerCount: 2
Fore
SplineSet
316 92 m 4xfa
 362 92 408 46 408 0 c 4
 408 -46 362 -92 316 -92 c 4
 270 -92 224 -46 224 0 c 4
 224 46 270 92 316 92 c 4xfa
362 384 m 5xf6
 362 256 l 5
 270 256 l 5
 270 476 l 5
 316 476 l 6
 408 476 460 476 460 576 c 4
 460 676 408 676 316 676 c 4
 224 676 172 676 172 576 c 5
 80 576 l 5
 80 768 172 768 316 768 c 4
 460 768 552 768 552 576 c 4
 552 405 479 386 362 384 c 5xf6
EndSplineSet
Validated: 1
EndChar

StartChar: at
Encoding: 64 64 103
Width: 632
Flags: W
HStem: 0 92<245.757 432.373> 233 92<329.999 460> 443 92<329.999 460> 676 92<245.757 432.373>
VStem: 80 92<193.276 574.724> 224 92<339.071 427.507> 460 92<122.064 164 325 443 535 645.936>
LayerCount: 2
Fore
SplineSet
316 384 m 0
 316 326 362 325 435 325 c 2
 460 325 l 1
 460 443 l 1
 439 443 l 2
 379 443 316 443 316 384 c 0
552 164 m 1
 552 0 408 0 316 0 c 0
 172 0 80 92 80 384 c 0
 80 676 172 768 316 768 c 0
 408 768 552 768 552 604 c 2
 552 233 l 1
 439 233 l 2
 295 233 224 270 224 384 c 0
 224 513 295 535 439 535 c 2
 460 535 l 1
 460 604 l 2
 460 676 362 676 316 676 c 0
 224 676 172 604 172 384 c 0
 172 164 224 92 316 92 c 0
 362 92 460 92 460 164 c 1
 552 164 l 1
EndSplineSet
Validated: 1
EndChar

StartChar: A
Encoding: 65 65 104
Width: 632
Flags: W
HStem: 0 21G<80 179.857 452.143 552> 210 92<249 383> 748 20G<262.13 369.87>
LayerCount: 2
Fore
SplineSet
365 768 m 1
 552 0 l 1
 457 0 l 1
 406 210 l 1
 226 210 l 1
 175 0 l 1
 80 0 l 1
 267 768 l 1
 365 768 l 1
383 302 m 1
 316 577 l 1
 249 302 l 1
 383 302 l 1
EndSplineSet
Validated: 1
EndChar

StartChar: G
Encoding: 71 71 105
Width: 632
Flags: W
HStem: 0 92<245.757 432.373> 292 92<316 460> 676 92<245.757 432.373>
VStem: 80 92<193.276 574.724> 460 92<122.064 292 604 645.936>
LayerCount: 2
Fore
SplineSet
460 384 m 5
 460 384 552 384 552 292 c 5
 552 164 l 6
 552 0 408 0 316 0 c 4
 172 0 80 92 80 384 c 4
 80 676 172 768 316 768 c 4
 408 768 552 768 552 604 c 5
 460 604 l 5
 460 676 362 676 316 676 c 4
 224 676 172 604 172 384 c 4
 172 164 224 92 316 92 c 4
 362 92 460 92 460 164 c 6
 460 292 l 5
 316 292 l 5
 316 384 l 5
 460 384 l 5
EndSplineSet
Validated: 1
EndChar

StartChar: H
Encoding: 72 72 106
Width: 632
Flags: W
HStem: 0 21G<80 172 460 552> 338 92<172 460> 748 20G<80 172 460 552>
VStem: 80 92<0 338 430 768> 460 92<0 338 430 768>
LayerCount: 2
Fore
SplineSet
80 768 m 1
 172 768 l 1
 172 655 172 543 172 430 c 1
 460 430 l 1
 460 543 460 655 460 768 c 1
 552 768 l 1
 552 0 l 1
 460 0 l 1
 460 338 l 1
 172 338 l 1
 172 0 l 1
 80 0 l 1
 80 768 l 1
EndSplineSet
Validated: 1
EndChar

StartChar: I
Encoding: 73 73 107
Width: 632
Flags: W
HStem: 0 92<100 270 362 532> 676 92<100 270 362 532>
VStem: 270 92<92 676>
LayerCount: 2
Fore
SplineSet
532 768 m 5
 532 676 l 5
 362 676 l 5
 362 92 l 5
 532 92 l 5
 532 0 l 5
 100 0 l 5
 100 92 l 5
 270 92 l 5
 270 676 l 5
 100 676 l 5
 100 768 l 5
 532 768 l 5
EndSplineSet
Validated: 1
EndChar

StartChar: J
Encoding: 74 74 108
Width: 632
Flags: W
HStem: 0 92<207.483 424.517> 676 92<316 460>
VStem: 80 92<137.312 256> 460 92<137.312 676>
LayerCount: 2
Fore
SplineSet
460 676 m 1
 316 676 l 1
 316 768 l 1
 395 768 473 768 552 768 c 1
 552 597 552 427 552 256 c 0
 552 0 460 0 316 0 c 0
 172 0 80 0 80 256 c 1
 172 256 l 1
 172 92 224 92 316 92 c 0
 408 92 460 92 460 256 c 2
 460 676 l 1
EndSplineSet
Validated: 1
EndChar

StartChar: K
Encoding: 75 75 109
Width: 632
VWidth: 0
Flags: W
HStem: 0 21G<80 191.64 440.36 552> 748 20G<80 172 403.5 552>
VStem: 80 92<191 768>
LayerCount: 2
Fore
SplineSet
80 768 m 1
 172 768 l 1
 172 191 l 1
 265 383 357 576 450 768 c 1
 552 768 l 1
 367 384 l 1
 552 0 l 1
 518 0 484 0 450 -0 c 1
 316 278 l 1
 182 0 l 1
 148 0 114 0 80 0 c 1
 80 768 l 1
EndSplineSet
Validated: 1
EndChar

StartChar: M
Encoding: 77 77 110
Width: 632
VWidth: 0
Flags: W
HStem: 0 21G<80 172 460 552> 748 20G<80 191.537 440.463 552>
VStem: 80 92<0 582> 460 92<0 582>
LayerCount: 2
Fore
SplineSet
460 582 m 1
 368 384 l 1
 265 384 l 1
 172 582 l 1
 172 0 l 1
 80 0 l 1
 80 768 l 1
 114 768 148 768 182 768 c 1
 316 487 l 1
 450 768 l 1
 484 768 518 768 552 768 c 1
 552 0 l 1
 460 0 l 1
 460 582 l 1
EndSplineSet
Validated: 1
EndChar

StartChar: N
Encoding: 78 78 111
Width: 632
VWidth: 0
Flags: W
HStem: 0 21G<80 172 440.365 552> 748 20G<80 191.635 460 552>
VStem: 80 92<0 577> 460 92<191 768>
LayerCount: 2
Fore
SplineSet
460 768 m 1
 552 768 l 1
 552 0 l 1
 460 0 l 1
 450 -0 l 1
 265 384 l 1
 172 577 l 1
 172 0 l 1
 80 0 l 1
 80 768 l 1
 172 768 l 1
 182 768 l 1
 367 384 l 1
 460 191 l 1
 460 768 l 1
EndSplineSet
Validated: 1
EndChar

StartChar: O
Encoding: 79 79 112
Width: 632
Flags: W
HStem: 0 92<222.828 409.172> 676 92<222.828 409.172>
VStem: 80 92<162.645 605.355> 460 92<162.645 605.355>
LayerCount: 2
Fore
SplineSet
552 384 m 4
 552 0 460 0 316 0 c 4
 172 0 80 0 80 384 c 4
 80 768 172 768 316 768 c 4
 460 768 552 768 552 384 c 4
316 676 m 4
 224 676 172 676 172 384 c 4
 172 92 224 92 316 92 c 4
 408 92 460 92 460 384 c 7
 460 676 408 676 316 676 c 4
EndSplineSet
Validated: 1
EndChar

StartChar: P
Encoding: 80 80 113
Width: 632
Flags: W
HStem: 0 21G<80 172> 338 92<172 402.218> 676 92<172 402.218>
VStem: 80 92<0 338 430 676> 460 92<485.742 620.258>
LayerCount: 2
Fore
SplineSet
172 430 m 1
 316 430 l 2
 460 430 460 553 460 553 c 1
 460 553 460 676 316 676 c 2
 172 676 l 1
 172 430 l 1
80 768 m 1
 158.667 768 237.333 768 316 768 c 0
 552 768 552 553 552 553 c 1
 552 553 552 338 316 338 c 2
 172 338 l 1
 172 0 l 1
 80 0 l 1
 80 768 l 1
EndSplineSet
Validated: 1
EndChar

StartChar: Q
Encoding: 81 81 114
Width: 632
Flags: W
HStem: 0 92<222.828 383.775> 676 92<222.828 409.172>
VStem: 80 92<162.645 605.355> 460 92<229.949 605.355>
LayerCount: 2
Fore
SplineSet
316 676 m 4
 224 676 172 676 172 384 c 4
 172 92 224 92 316 92 c 4
 345 92 371 101 392 121 c 5
 350 209 352 204 310 292 c 5
 412 292 l 5
 444 224 l 5
 455 267 460 320 460 384 c 4
 460 676 408 676 316 676 c 4
425 52 m 5
 389 18 350 0 316 0 c 4
 172 0 80 0 80 384 c 4
 80 768 172 768 316 768 c 4
 460 768 552 768 552 384 c 4
 552 284 526 198 488 133 c 5
 552 0 l 5
 518 0 484 0 450 0 c 5
 425 52 l 5
EndSplineSet
Validated: 1
EndChar

StartChar: R
Encoding: 82 82 115
Width: 632
Flags: W
HStem: 0 21G<80 172 440.355 552> 338 92<172 287 386 402.968> 676 92<172 402.218>
VStem: 80 92<0 338 430 676> 460 92<485.742 620.258>
LayerCount: 2
Fore
SplineSet
80 768 m 1
 159 768 237 768 316 768 c 0
 552 768 552 553 552 553 c 1
 552 408 417 345 386 345 c 1
 552 0 l 1
 518 0 484 0 450 0 c 1
 287 338 l 1
 172 338 l 1
 172 0 l 1
 80 0 l 1
 80 768 l 1
172 430 m 1
 316 430 l 2
 460 430 460 553 460 553 c 1
 460 553 460 676 316 676 c 2
 172 676 l 1
 172 430 l 1
EndSplineSet
Validated: 1
EndChar

StartChar: S
Encoding: 83 83 116
Width: 632
Flags: W
HStem: 0 92<195.38 425.614> 361 92<192.459 439.541> 676 92<197.455 439.541>
VStem: 80 92<116.779 184 473.881 652.128> 460 92<127.261 339.775 584 656.681>
LayerCount: 2
Fore
SplineSet
80 576 m 4
 80 768 172 768 316 768 c 4
 460 768 552 734 552 584 c 5
 460 584 l 5
 460 670 422 676 352 676 c 6
 316 676 l 6
 224 676 172 676 172 576 c 4
 172 453 192 453 316 453 c 7
 460 453 552 453 552 237 c 4
 552 0 460 0 316 0 c 4
 172 0 80 0 80 184 c 5
 172 184 l 5
 172 92 224 92 316 92 c 4
 408 92 460 92 460 237 c 4
 460 361 440 361 316 361 c 7
 172 361 80 361 80 576 c 4
EndSplineSet
Validated: 1
EndChar

StartChar: U
Encoding: 85 85 117
Width: 632
Flags: W
HStem: 0 92<235.426 442.317> 748 20G<80 172 460 552>
VStem: 80 92<157.259 768> 460 92<112.534 768>
LayerCount: 2
Fore
SplineSet
460 768 m 1
 552 768 l 1
 552 697 552 325 552 236 c 0
 552 0 552 0 316 0 c 3
 80 0 80 236 80 236 c 0
 80 768 l 1
 172 768 l 1
 172 236 l 0
 172 236 172 92 316 92 c 3
 460 92 460 92 460 236 c 3
 460 320 460 697 460 768 c 1
EndSplineSet
Validated: 1
EndChar

StartChar: V
Encoding: 86 86 118
Width: 632
Flags: W
HStem: 0 21G<262.13 369.87> 748 20G<80 179.887 452.113 552>
LayerCount: 2
Fore
SplineSet
365 0 m 5
 267 0 l 5
 80 768 l 5
 175 768 l 5
 316 191 l 5
 457 768 l 5
 552 768 l 5
 365 0 l 5
EndSplineSet
Validated: 1
EndChar

StartChar: W
Encoding: 87 87 119
Width: 632
Flags: W
HStem: -0 21G<136.49 236.136 395.864 495.51> 492 20G<263.892 367.15> 748 20G<80 174.52 457.487 552>
LayerCount: 2
Fore
SplineSet
210 281 m 1
 269 512 l 1
 362 512 l 1
 422 279 l 1
 459 768 l 1
 552 768 l 1
 494 -0 l 1
 401 -0 l 1
 316 331 l 1
 231 -0 l 1
 138 -0 l 1
 80 768 l 1
 173 768 l 1
 210 281 l 1
EndSplineSet
Validated: 1
EndChar

StartChar: X
Encoding: 88 88 120
Width: 632
VWidth: 0
Flags: W
HStem: 0 21G<80 191.635 440.365 552> 748 20G<80 191.635 440.365 552>
LayerCount: 2
Fore
SplineSet
450 768 m 1
 552 768 l 1
 367 384 l 1
 552 0 l 1
 518 0 484 0 450 -0 c 1
 316 278.141 l 1
 182 0 l 1
 148 0 114 0 80 0 c 1
 265 384 l 1
 80 768 l 1
 182 768 l 1
 316 489.859 l 1
 450 768 l 1
EndSplineSet
Validated: 1
EndChar

StartChar: Y
Encoding: 89 89 121
Width: 632
Flags: W
HStem: 0 21G<270 362> 748 20G<80 192.852 439.148 552>
VStem: 270 92<0 384>
LayerCount: 2
Fore
SplineSet
270 384 m 1
 80 768 l 1
 183 768 l 1
 316 498 l 1
 449 768 l 1
 552 768 l 1
 362 384 l 1
 362 0 l 1
 270 0 l 1
 270 384 l 1
EndSplineSet
Validated: 1
EndChar

StartChar: Z
Encoding: 90 90 122
Width: 632
VWidth: 0
Flags: W
HStem: 0 92<226 552> 676 92<80 406>
LayerCount: 2
Fore
SplineSet
552 0 m 5
 395 0 237 0 80 0 c 5
 188 225 298 451 406 676 c 5
 80 676 l 5
 80 768 l 5
 237 768 395 768 552 768 c 5
 444 543 334 317 226 92 c 5
 552 92 l 5
 552 0 l 5
EndSplineSet
Validated: 1
EndChar

StartChar: backslash
Encoding: 92 92 123
Width: 632
VWidth: 0
Flags: W
HStem: 0 21G<406.344 512> 748 20G<120 225.656>
LayerCount: 2
Fore
SplineSet
414 0 m 5
 120 768 l 5
 218 768 l 5
 512 0 l 5
 478 0 448 0 414 0 c 5
EndSplineSet
Validated: 1
EndChar

StartChar: asciicircum
Encoding: 94 94 124
Width: 632
Flags: W
HStem: 748 20G<262.188 369.812>
LayerCount: 2
Fore
SplineSet
362 768 m 1
 512 384 l 1
 413 384 l 1
 316 632 l 1
 219 384 l 1
 120 384 l 1
 270 768 l 1
 362 768 l 1
EndSplineSet
Validated: 1
EndChar

StartChar: grave
Encoding: 96 96 125
Width: 632
Flags: W
HStem: 512 256
VStem: 96 266
LayerCount: 2
Fore
SplineSet
96 732 m 0
 96 750 112 768 130 768 c 2
 131 768 l 2
 162 768 195 736 195 736 c 1
 254 681 360 579 362 533 c 0
 362 521 355 512 343 512 c 2
 342 512 l 2
 296 512 190 614 131 669 c 1
 131 669 97 702 96 732 c 0
EndSplineSet
Validated: 1
EndChar

StartChar: bar
Encoding: 124 124 126
Width: 632
VWidth: 0
Flags: W
HStem: 0 21G<270 362> 748 20G<270 362>
VStem: 270 92<0 768>
LayerCount: 2
Fore
SplineSet
270 768 m 25
 362 768 l 25
 362 0 l 25
 270 0 l 25
 270 768 l 25
EndSplineSet
Validated: 1
EndChar

StartChar: asciitilde
Encoding: 126 126 127
Width: 632
Flags: W
HStem: 384 92<374.262 453.132> 476 92<179.403 257.575>
VStem: 80 92<428 469.247> 460 92<484.348 520>
LayerCount: 2
Fore
SplineSet
80 428 m 0x70
 80 428 80 568 221 568 c 3x70
 362 568 362 476 411 476 c 3
 460 476 460 520 460 520 c 0
 552 520 l 0
 552 517 552 384 411 384 c 3xb0
 270 384 270 476 220 476 c 3
 172 476 172 428 172 428 c 0
 80 428 l 0x70
EndSplineSet
Validated: 1
EndChar

StartChar: exclamdown
Encoding: 161 161 162
Width: 632
Flags: W
HStem: 420 184<261.235 370.765>
VStem: 224 184<457.235 566.765> 270 92<-256 256>
LayerCount: 2
Fore
SplineSet
316 604 m 0xc0
 362 604 408 558 408 512 c 0
 408 466 362 420 316 420 c 0
 270 420 224 466 224 512 c 0
 224 558 270 604 316 604 c 0xc0
270 256 m 25xa0
 362 256 l 25
 362 -256 l 25
 270 -256 l 25
 270 256 l 25xa0
EndSplineSet
Validated: 1
EndChar

StartChar: cent
Encoding: 162 162 163
Width: 632
Flags: W
HStem: 0 21G<270 362> 128 92<238.278 270 362 432.485> 546 92<238.278 270 362 432.485> 748 20G<270 362>
VStem: 80 92<289.502 476.498> 270 92<0 128 226 540 638 768> 460 92<244.498 291 475 521.502>
CounterMasks: 1 0e
LayerCount: 2
Fore
SplineSet
270 768 m 1
 362 768 l 1
 362 638 l 1
 449 635 552 613 552 475 c 1
 460 475 l 1
 460 527 408 542 362 546 c 1
 362 220 l 1
 408 224 460 239 460 291 c 1
 552 291 l 1
 552 153 449 131 362 128 c 1
 362 0 l 1
 270 0 l 1
 270 130 l 1
 153 148 80 237 80 383 c 0
 80 529 153 618 270 636 c 1
 270 768 l 1
270 540 m 1
 207 520 172 458 172 383 c 0
 172 308 207 246 270 226 c 1
 270 540 l 1
EndSplineSet
Validated: 1
EndChar

StartChar: sterling
Encoding: 163 163 164
Width: 632
Flags: W
HStem: 0 92<197 552> 292 92<197 411> 676 92<242.229 459.626>
VStem: 105 92<92 292 384 633.768>
LayerCount: 2
Fore
SplineSet
105 92 m 5
 105 247 105 403 105 558 c 4
 105 602 120 768 341 768 c 4
 418 768 489 739 552 707 c 5
 511 630 l 5
 465 653 423 676 341 676 c 4
 264 676 197 656 197 558 c 4
 197 500 197 442 197 384 c 5
 411 384 l 5
 411 292 l 5
 197 292 l 5
 197 92 l 5
 552 92 l 5
 552 0 l 5
 80 0 l 5
 105 92 l 5
EndSplineSet
Validated: 1
EndChar

StartChar: Euro
Encoding: 164 8364 165
Width: 632
Flags: W
HStem: 0 92<245.321 432.373> 256 92<180 411> 420 92<180 411> 676 92<245.321 432.373>
VStem: 80 92<348 420> 460 92<122.064 164 604 645.936>
LayerCount: 2
Fore
SplineSet
552 164 m 1
 552 0 408 0 316 0 c 0
 172 0 80 92 80 384 c 0
 80 676 172 768 316 768 c 0
 408 768 552 768 552 604 c 1
 460 604 l 1
 460 676 362 676 316 676 c 0
 245 676 198 633 180 512 c 1
 411 512 l 1
 411 420 l 1
 172 420 l 1
 172 408 172 396 172 384 c 0
 172 372 172 360 172 348 c 1
 411 348 l 1
 411 256 l 1
 180 256 l 1
 198 135 245 92 316 92 c 0
 362 92 460 92 460 164 c 1
 552 164 l 1
EndSplineSet
Validated: 1
EndChar

StartChar: yen
Encoding: 165 165 166
Width: 632
Flags: W
HStem: 0 21G<270 362> 164 92<120 270 362 512> 292 92<120 270 362 512> 748 20G<80 192.852 439.148 552>
VStem: 270 92<0 164 256 292>
LayerCount: 2
Fore
SplineSet
362 292 m 1
 362 256 l 1
 512 256 l 1
 512 164 l 1
 362 164 l 1
 362 0 l 1
 270 0 l 1
 270 164 l 1
 120 164 l 1
 120 256 l 1
 270 256 l 1
 270 292 l 1
 120 292 l 1
 120 384 l 1
 270 384 l 1
 80 768 l 1
 183 768 l 1
 316 498 l 1
 449 768 l 1
 552 768 l 1
 362 384 l 1
 512 384 l 1
 512 292 l 1
 362 292 l 1
EndSplineSet
Validated: 1
EndChar

StartChar: section
Encoding: 167 167 168
Width: 632
Flags: W
HStem: -256 92<192.459 434.545> 59 91<187.558 434.054> 361 92<197.5 444.442> 676 92<197.455 439.541>
VStem: 80 92<-144.681 -72 168.387 335.58 471.846 652.128> 460 92<-140.128 40.2422 175.251 343.188 584 656.681>
LayerCount: 2
Fore
SplineSet
316 361 m 0
 224 361 172 361 172 256 c 0
 172 150 192 150 316 150 c 2
 320 150 l 2
 410 150 460 152 460 256 c 0
 460 361 440 361 316 361 c 0
495 118 m 1
 531 90 552 37 552 -64 c 0
 552 -256 460 -256 316 -256 c 0
 172 -256 80 -222 80 -72 c 1
 172 -72 l 1
 172 -158 210 -164 280 -164 c 2
 316 -164 l 2
 408 -164 460 -164 460 -64 c 0
 460 59 440 59 316 59 c 0
 172 59 80 59 80 256 c 0
 80 333 94 380 120 409 c 1
 94 440 80 491 80 576 c 0
 80 768 172 768 316 768 c 0
 460 768 552 734 552 584 c 1
 460 584 l 1
 460 670 422 676 352 676 c 2
 316 676 l 2
 224 676 172 676 172 576 c 0
 172 453 192 453 316 453 c 0
 460 453 552 453 552 256 c 0
 552 191 528 147 495 118 c 1
EndSplineSet
Validated: 1
EndChar

StartChar: copyright
Encoding: 169 169 170
Width: 632
Flags: W
HStem: 0 86<210.531 421.515> 145 61<250.578 393.923> 426 62<250.578 393.923> 547 85<210.531 421.515>
VStem: 0 86<217.124 415.305> 145 75<235.502 396.595> 401 75<218.691 255 378 414.309> 547 85<217.124 415.305>
LayerCount: 2
Fore
SplineSet
632 316 m 0
 632 316 632 0 316 0 c 0
 0 0 0 316 0 316 c 0
 0 316 0 632 316 632 c 0
 632 632 632 316 632 316 c 0
316 547 m 0
 86 547 86 316 86 316 c 0
 86 316 86 86 316 86 c 0
 546 86 547 316 547 316 c 0
 547 316 546 547 316 547 c 0
476 255 m 1
 476 145 378 145 316 145 c 0
 198 145 145 206 145 316 c 0
 145 426 198 488 316 488 c 0
 378 488 476 488 476 378 c 1
 401 378 l 1
 401 426 354 426 316 426 c 0
 241 426 220 378 220 316 c 0
 220 254 241 206 316 206 c 0
 354 206 401 207 401 255 c 1
 476 255 l 1
EndSplineSet
Validated: 1
EndChar

StartChar: ordfeminine
Encoding: 170 170 171
Width: 632
Flags: W
HStem: 210 92<120 512> 384 69<205.158 436> 542 68<205.158 436> 699 69<204.261 407.826>
VStem: 120 76<463.936 527.422> 436 76<453 542 610 670.68>
LayerCount: 2
Fore
SplineSet
120 302 m 0
 512 302 l 0
 512 210 l 0
 120 210 l 0
 120 302 l 0
196 497 m 0
 196 453 255 453 316 453 c 3
 352 453 376 453 415 453 c 2
 436 453 l 9
 436 542 l 17
 418 542 l 18
 387 542 352 542 316 542 c 0
 266 542 196 541 196 497 c 0
175 664 m 1
 141 722 l 1
 193 746 252 768 316 768 c 3
 499 768 512 643 512 610 c 0
 512 522 512 472 512 384 c 17
 417 384 l 2
 390 384 350 384 316 384 c 3
 196 384 120 411 120 497 c 3
 120 594 196 610 316 610 c 3
 341 610 380 610 421 610 c 2
 436 610 l 1
 436 684 380 699 316 699 c 1
 248 699 213 681 175 664 c 1
EndSplineSet
Validated: 1
EndChar

StartChar: guillemotleft
Encoding: 171 171 172
Width: 632
Flags: W
LayerCount: 2
Fore
SplineSet
316 338 m 1
 316 430 l 1
 552 640 l 1
 552 535 l 1
 426 384 l 1
 552 233 l 1
 552 128 l 1
 316 338 l 1
80 338 m 1
 80 430 l 1
 316 640 l 1
 316 535 l 1
 190 384 l 1
 316 233 l 1
 316 128 l 1
 80 338 l 1
EndSplineSet
Validated: 1
EndChar

StartChar: logicalnot
Encoding: 172 172 173
Width: 632
Flags: W
HStem: 420 92<80 460>
VStem: 460 92<256 420>
LayerCount: 2
Fore
SplineSet
80 512 m 1
 552 512 l 1
 552 427 552 341 552 256 c 1
 460 256 l 1
 460 420 l 1
 80 420 l 1
 80 512 l 1
EndSplineSet
Validated: 1
EndChar

StartChar: uni00AD
Encoding: 173 173 174
Width: 632
Flags: W
HStem: 420 92<120 512>
LayerCount: 2
Fore
SplineSet
120 512 m 4
 512 512 l 4
 512 420 l 4
 120 420 l 4
 120 512 l 4
EndSplineSet
Validated: 1
EndChar

StartChar: registered
Encoding: 174 174 175
Width: 632
Flags: W
HStem: 0 86<210.531 421.515> 288 56<226 299 359 393.434> 438 50<226 392.382> 547 85<210.531 421.515>
VStem: 0 86<217.124 415.305> 170 56<145 288 344 438> 406 56<360.522 421.691> 547 85<217.124 415.305>
LayerCount: 2
Fore
SplineSet
170 488 m 1
 220 488 266 488 316 488 c 0
 462 488 462 391 462 391 c 1
 462 327 378 291 359 291 c 1
 462 145 l 1
 441 145 420 145 399 145 c 1
 299 288 l 1
 226 288 l 1
 226 145 l 1
 170 145 l 1
 170 488 l 1
226 344 m 1
 316 344 l 2
 406 344 406 391 406 391 c 1
 406 391 406 438 316 438 c 2
 226 438 l 1
 226 344 l 1
632 316 m 0
 632 316 632 0 316 0 c 0
 0 0 0 316 0 316 c 0
 0 316 0 632 316 632 c 0
 632 632 632 316 632 316 c 0
316 547 m 0
 86 547 86 316 86 316 c 0
 86 316 86 86 316 86 c 0
 546 86 547 316 547 316 c 0
 547 316 546 547 316 547 c 0
EndSplineSet
Validated: 1
EndChar

StartChar: macron
Encoding: 175 175 176
Width: 634
Flags: W
HStem: 558 92<120 514>
LayerCount: 2
Fore
SplineSet
120 650 m 0
 514 650 l 0
 514 558 l 0
 120 558 l 0
 120 650 l 0
EndSplineSet
Validated: 1
EndChar

StartChar: degree
Encoding: 176 176 177
Width: 632
Flags: W
HStem: 384 85<249.643 382.357> 683 85<249.643 382.357>
VStem: 120 92<506.026 645.974> 420 92<506.026 645.974>
LayerCount: 2
Fore
SplineSet
512 576 m 0
 512 384 316 384 316 384 c 0
 316 384 120 384 120 576 c 0
 120 768 316 768 316 768 c 0
 316 768 512 768 512 576 c 0
316 683 m 0
 316 683 212 683 212 576 c 0
 212 469 316 469 316 469 c 0
 316 469 420 469 420 576 c 3
 420 683 316 683 316 683 c 0
EndSplineSet
Validated: 1
EndChar

StartChar: plusminus
Encoding: 177 177 178
Width: 632
Flags: W
HStem: 210 92<80 552> 535 92<80 270 362 552> 748 20G<270 362>
VStem: 270 92<394 535 627 768>
LayerCount: 2
Fore
SplineSet
80 302 m 0
 552 302 l 0
 552 210 l 0
 80 210 l 0
 80 302 l 0
552 627 m 1
 552 535 l 1
 362 535 l 1
 362 394 l 1
 270 394 l 1
 270 535 l 1
 80 535 l 1
 80 627 l 1
 270 627 l 1
 270 768 l 1
 362 768 l 1
 362 627 l 1
 552 627 l 1
EndSplineSet
Validated: 1
EndChar

StartChar: uni00B2
Encoding: 178 178 179
Width: 632
VWidth: 0
Flags: W
HStem: 384 64<308 460> 692 76<252.271 379.909>
VStem: 172 76<640 686.156> 384 76<597.757 686.877>
LayerCount: 2
Fore
SplineSet
308 448 m 1
 460 448 l 1
 460 384 l 1
 364 384 202 384 172 384 c 1
 172 392 172 432 172 448 c 1
 172 448 384 576 384 640 c 0
 384 677 384 692 316 692 c 0
 248 692 248 676 248 640 c 1
 172 640 l 1
 172 702 172 768 316 768 c 0
 460 768 460 696 460 640 c 0
 460 561 308 448 308 448 c 1
EndSplineSet
Validated: 1
EndChar

StartChar: uni00B3
Encoding: 179 179 180
Width: 632
Flags: W
HStem: 384 76<249.552 382.448> 556 64<316 366.914> 692 76<263.44 368.56>
VStem: 172 76<462.357 498> 186 76<666 690.801> 370 76<623.743 691.004> 384 76<462.747 549.201>
LayerCount: 2
Fore
SplineSet
460 498 m 0xe2
 460 417 404 384 316 384 c 0
 228 384 172 422.5 172 498 c 1
 248 498 l 1
 248 460 260 460 316 460 c 0
 372 460 384 460 384 498 c 0xf2
 384 544 372 556 316 556 c 1
 316 620 l 1
 360 620 370 630 370 666 c 0
 370 692 360 692 316 692 c 0
 272 692 262 692 262 666 c 1
 186 666 l 1
 186 728 228 768 316 768 c 0
 404 768 446 728 446 666 c 0xec
 446 623 420 604 404 588 c 1
 420 572 460 558 460 498 c 0xe2
EndSplineSet
Validated: 1
EndChar

StartChar: uni00B5
Encoding: 181 181 182
Width: 632
Flags: W
HStem: 0 92<232.75 442.317> 492 20G<80 172 460 552>
VStem: 80 92<-255 42 157.259 512> 460 92<112.534 512>
LayerCount: 2
Fore
SplineSet
460 512 m 1
 552 512 l 1
 552 441 552 325 552 236 c 0
 552 0 552 0 316 0 c 0
 252 0 206 17 172 42 c 1
 172 -255 l 1
 80 -255 l 1
 80 1 80 256 80 512 c 1
 172 512 l 1
 172 236 l 1
 172 236 172 92 316 92 c 0
 460 92 460 92 460 236 c 0
 460 320 460 441 460 512 c 1
EndSplineSet
Validated: 1
EndChar

StartChar: paragraph
Encoding: 182 182 183
Width: 632
Flags: W
HStem: 0 21G<316 402 466 552> 676 92<402 466>
VStem: 80 322<450.537 655.463> 316 86<0 338> 466 86<0 676>
LayerCount: 2
Fore
SplineSet
552 768 m 5xe8
 552 0 l 5
 466 0 l 5
 466 676 l 5
 402 676 l 5
 402 0 l 5
 316 0 l 5
 316 338 l 5xd8
 270 338 l 6
 80 338 80 553 80 553 c 5
 80 553 80 768 270 768 c 4
 349 768 473 768 552 768 c 5xe8
EndSplineSet
Validated: 1
EndChar

StartChar: periodcentered
Encoding: 183 183 184
Width: 632
Flags: W
HStem: 292 184<261.235 370.765>
VStem: 224 184<329.235 438.765>
LayerCount: 2
Fore
SplineSet
316 476 m 4
 362 476 408 430 408 384 c 4
 408 338 362 292 316 292 c 4
 270 292 224 338 224 384 c 4
 224 430 270 476 316 476 c 4
EndSplineSet
Validated: 1
EndChar

StartChar: uni00B9
Encoding: 185 185 186
Width: 632
VWidth: 0
Flags: W
HStem: 748 20G<313.333 420>
VStem: 344 76<384 679>
LayerCount: 2
Fore
SplineSet
267 588 m 1
 172 588 l 17
 331 768 l 1
 354 768 397 768 420 768 c 1
 420 384 l 1
 344 384 l 1
 344 679 l 1
 267 588 l 1
EndSplineSet
Validated: 1
EndChar

StartChar: ordmasculine
Encoding: 186 186 187
Width: 632
VWidth: 0
Flags: W
HStem: 210 92<120 512> 384 85<249.643 382.357> 683 85<249.643 382.357>
VStem: 120 92<506.026 645.974> 420 92<506.026 645.974>
LayerCount: 2
Fore
SplineSet
120 302 m 0
 512 302 l 0
 512 210 l 0
 120 210 l 0
 120 302 l 0
512 576 m 0
 512 384 316 384 316 384 c 0
 316 384 120 384 120 576 c 0
 120 768 316 768 316 768 c 0
 316 768 512 768 512 576 c 0
316 683 m 0
 316 683 212 683 212 576 c 0
 212 469 316 469 316 469 c 0
 316 469 420 469 420 576 c 3
 420 683 316 683 316 683 c 0
EndSplineSet
Validated: 1
EndChar

StartChar: guillemotright
Encoding: 187 187 188
Width: 632
Flags: W
LayerCount: 2
Fore
SplineSet
316 338 m 1
 80 128 l 1
 80 233 l 1
 206 384 l 1
 80 535 l 1
 80 640 l 1
 316 430 l 1
 316 338 l 1
552 338 m 1
 316 128 l 1
 316 233 l 1
 442 384 l 1
 316 535 l 1
 316 640 l 1
 552 430 l 1
 552 338 l 1
EndSplineSet
Validated: 1
EndChar

StartChar: OE
Encoding: 188 338 189
Width: 632
Flags: W
HStem: 0 92<208.349 282.265 408 552> 338 92<408 506> 676 92<208.561 279.796 408 552>
VStem: 80 92<148.027 617.747> 316 92<139.758 338 430 619.578>
CounterMasks: 1 e0
LayerCount: 2
Fore
SplineSet
316 768 m 5
 408 768 l 5
 552 768 l 5
 552 676 l 5
 408 676 l 5
 408 626 l 5
 408 430 l 5
 506 430 l 5
 506 338 l 5
 408 338 l 5
 408 92 l 5
 552 92 l 5
 552 0 l 5
 408 0 l 5
 316 0 l 5
 316 13 l 5
 292 0 267 0 244 0 c 4
 172 0 80 0 80 384 c 4
 80 768 172 768 244 768 c 4
 267 768 303 768 316 755 c 5
 316 768 l 5
244 676 m 4
 224 676 172 676 172 384 c 4
 172 92 223 92 244 92 c 4
 270 92 316 92 316 384 c 4
 316 676 263 676 244 676 c 4
EndSplineSet
Validated: 1
EndChar

StartChar: oe
Encoding: 189 339 190
Width: 632
Flags: W
HStem: 0 76<165.665 260.655 380.418 552> 212 88<362 476> 424 88<168.782 262.247 364.598 467.832>
VStem: 80 76<82.9605 417.071> 270 92<95.018 212 300 420.23> 476 76<300 416.945>
CounterMasks: 1 1c
LayerCount: 2
Fore
SplineSet
362 300 m 1
 476 300 l 1
 476 418 475 424 413 424 c 0
 365.913 424 361.819 417.176 361.819 361.811 c 0
 361.819 350.155 362 336.348 362 320 c 1
 362 300 l 1
215 424 m 0
 166 424 156 420 156 256 c 0
 156 92 156 76 215 76 c 0
 270 76 270 92 270 256 c 0
 270 420 270 424 215 424 c 0
362 212 m 1
 362 206.719 l 0
 362 96.3539 362.969 76 488 76 c 2
 552 76 l 1
 552 0 l 1
 427 0 361 11 328 20 c 1
 310 0 276 0 215 0 c 0
 80 0 80 0 80 256 c 0
 80 512 80 512 215 512 c 0
 269 512 301 496 320 496 c 1
 340 509 365 512 413 512 c 0
 546 512 552 512 552 256 c 2
 552 212 l 1
 362 212 l 1
EndSplineSet
Validated: 1
EndChar

StartChar: questiondown
Encoding: 191 191 192
Width: 632
Flags: W
HStem: -254 92<197.198 434.802> 38 91<196.942 270> 422 184<261.235 370.765>
VStem: 80 92<-138.128 13.447> 224 184<459.235 568.765> 270 92<129 258> 460 92<-137.586 -62>
LayerCount: 2
Fore
SplineSet
316 422 m 4xfa
 270 422 224 468 224 514 c 4
 224 560 270 606 316 606 c 4
 362 606 408 560 408 514 c 4
 408 468 362 422 316 422 c 4xfa
270 129 m 5xf6
 270 258 l 5
 362 258 l 5
 362 38 l 5
 316 38 l 6
 224 38 172 38 172 -62 c 4
 172 -162 224 -162 316 -162 c 4
 408 -162 460 -162 460 -62 c 5
 552 -62 l 5
 552 -254 460 -254 316 -254 c 4
 172 -254 80 -254 80 -62 c 4
 80 109 153 127 270 129 c 5xf6
EndSplineSet
Validated: 1
EndChar

StartChar: AE
Encoding: 198 198 199
Width: 632
Flags: W
HStem: 0 92<408 552> 210 92<248 316> 338 92<408 506> 676 92<408 552>
VStem: 316 92<92 210 302 338 430 577>
LayerCount: 2
Fore
SplineSet
226 210 m 1
 174 0 l 1
 80 0 l 1
 266 768 l 1
 552 768 l 1
 552 676 l 1
 408 676 l 1
 408 430 l 1
 506 430 l 1
 506 338 l 1
 408 338 l 1
 408 92 l 1
 552 92 l 1
 552 0 l 1
 316 0 l 1
 316 210 l 1
 226 210 l 1
316 302 m 1
 316 577 l 1
 248 302 l 1
 316 302 l 1
EndSplineSet
Validated: 1
EndChar

StartChar: Ccedilla
Encoding: 199 199 200
Width: 632
Flags: W
HStem: -256 64<203 379.821> -104 64<362 380.598> 1 91<244.953 270 362 432.485> 676 92<245.757 432.373>
VStem: 80 92<193.696 574.724> 270 92<-40 1> 385 75<-183.925 -111.525> 460 92<117.498 164 604 645.936>
LayerCount: 2
Fore
SplineSet
316 92 m 0xfd
 362 92 460 92 460 164 c 1
 552 164 l 1xfd
 552 26 449 4 362 1 c 1
 362 -40 l 1
 364 -40 l 2
 385 -40 460 -40 460 -148 c 0
 460 -256 385 -256 316 -256 c 2
 203 -256 l 1
 203 -192 l 1
 316 -192 l 2
 360 -192 385 -181 385 -148 c 0xfe
 385 -115 365 -104 316 -104 c 2
 270 -104 l 1
 270 4 l 1
 153 23 80 124 80 384 c 0
 80 676 172 768 316 768 c 0
 408 768 552 768 552 604 c 1
 460 604 l 1
 460 676 362 676 316 676 c 0
 224 676 172 604 172 384 c 0
 172 164 224 92 316 92 c 0xfd
EndSplineSet
Validated: 1
EndChar

StartChar: Eth
Encoding: 208 208 209
Width: 632
VWidth: 999
Flags: W
HStem: 0 92<172 373.502> 338 92<172 362> 676 92<172 373.502>
VStem: 80 92<92 338 430 676> 460 92<227.812 540.188>
CounterMasks: 1 e0
LayerCount: 2
Fore
SplineSet
172 92 m 1
 220 92 268 92 316 92 c 0
 460 92 460 384 460 384 c 1
 460 384 460 676 316 676 c 2
 172 676 l 1
 172 430 l 1
 362 430 l 1
 362 338 l 1
 172 338 l 1
 172 92 l 1
80 768 m 1
 316 768 l 2
 552 768 552 384 552 384 c 1
 552 384 552 0 316 0 c 2
 80 0 l 1
 80 768 l 1
EndSplineSet
Validated: 1
EndChar

StartChar: multiply
Encoding: 215 215 216
Width: 632
Flags: W
LayerCount: 2
Fore
SplineSet
381 466 m 1
 528 316 l 1
 462 251 l 1
 317 401 l 1
 170 251 l 1
 105 316 l 1
 252 466 l 1
 104 616 l 1
 169 681 l 1
 317 531 l 1
 463 681 l 1
 528 616 l 1
 381 466 l 1
EndSplineSet
Validated: 1
EndChar

StartChar: Oslash
Encoding: 216 216 217
Width: 632
Flags: W
HStem: 0 92<255.571 409.172> 676 92<222.828 376.429>
VStem: 80 92<205.086 605.355> 460 92<162.645 564.729>
LayerCount: 2
Fore
SplineSet
218 0 m 1
 120 0 l 1
 155 90 l 1
 112 150 80 244 80 384 c 0
 80 768 172 768 316 768 c 0
 344 768 375 760 405 743 c 1
 414 768 l 1
 512 768 l 1
 477 677 l 1
 521 617 552 523 552 384 c 0
 552 0 460 0 316 0 c 0
 288 0 257 7 227 24 c 1
 218 0 l 1
316 676 m 0
 224 676 172 676 172 384 c 0
 172 287 178 222 189 179 c 1
 377 672 l 1
 359 676 339 676 316 676 c 0
443 589 m 1
 255 96 l 1
 273 92 293 92 316 92 c 0
 408 92 460 92 460 384 c 0
 460 481 454 546 443 589 c 1
EndSplineSet
Validated: 1
EndChar

StartChar: Thorn
Encoding: 222 222 223
Width: 632
VWidth: 999
Flags: W
HStem: 0 21G<80 172> 257 92<172 402.218> 584 92<172 402.218> 748 20G<80 172>
VStem: 80 92<0 257 349 584 676 768> 460 92<404.424 527.871>
LayerCount: 2
Fore
SplineSet
552 466 m 1
 552 466 552 257 316 257 c 2
 172 257 l 1
 172 0 l 1
 80 0 l 1
 80 341.333 80 426.667 80 768 c 1
 172 768 l 1
 172 676 l 1
 316 676 l 2
 552 676 552 466 552 466 c 1
172 584 m 1
 172 349 l 1
 316 349 l 2
 460 349 460 466 460 466 c 1
 460 466 460 584 316 584 c 0
 268 584 220 584 172 584 c 1
EndSplineSet
Validated: 1
EndChar

StartChar: germandbls
Encoding: 223 223 224
Width: 632
Flags: W
HStem: -0 92<316 407.516> 362 92<316 393.219> 676 92<237.184 394.816>
VStem: 103 92<0 634.32> 437 92<495.357 635.165> 460 92<144.298 309.749>
LayerCount: 2
Fore
SplineSet
316 92 m 1xf4
 408 92 460 135 460 227 c 0xf4
 460 319 408 362 316 362 c 1
 316 454 l 1
 388 454 437 493 437 565 c 0
 437 637 388 676 316 676 c 0
 244 676 195 637 195 565 c 2
 195 0 l 1
 103 0 l 1
 103 565 l 2
 103 688 172 768 316 768 c 0
 460 768 529 688 529 565 c 0xf8
 529 479 487 439 460 408 c 1
 487 377 552 348 552 227 c 0
 552 104 460 0 316 -0 c 1
 316 92 l 1xf4
EndSplineSet
Validated: 1
EndChar

StartChar: ae
Encoding: 230 230 231
Width: 632
Flags: W
HStem: 0 76<165.119 270 379.273 552> 212 88<165.119 270 362 476> 424 88<141.105 265.897 364.494 467.832>
VStem: 80 76<84.18 202.986> 270 92<93.2026 212 300 421.077> 476 76<300 416.945>
CounterMasks: 1 1c
LayerCount: 2
Fore
SplineSet
270 300 m 1
 270 319 270 327 270 344 c 0
 270 409 270 424 220 424 c 0
 178 424 155 414 116 384 c 1
 80 448 l 1
 117 478 143 512 220 512 c 0
 258 512 280 500 300 481 c 1
 317 512 345 512 413 512 c 0
 546 512 552 512 552 256 c 2
 552 212 l 1
 362 212 l 1
 362 94 362 76 488 76 c 2
 552 76 l 1
 552 0 l 1
 439 0 333 0 220 0 c 0
 107 0 80 30 80 144 c 0
 80 273 107 300 220 300 c 2
 270 300 l 1
156 144 m 0
 156 85 178 76 220 76 c 0
 268 76 222 76 270 76 c 1
 270 212 l 1
 220 212 l 2
 178 212 156 203 156 144 c 0
362 300 m 1
 476 300 l 1
 476 418 475 424 413 424 c 0
 365.913 424 361.819 417.176 361.819 361.811 c 0
 361.819 350.155 362 336.348 362 320 c 0
 362 307 362 307 362 300 c 1
EndSplineSet
Validated: 1
EndChar

StartChar: ccedilla
Encoding: 231 231 232
Width: 632
Flags: W
HStem: -256 64<203 379.821> -104 64<362 380.598> 1 91<238.781 270 362 432.485> 420 92<239.765 432.373>
VStem: 80 92<163.298 347.589> 270 92<-40 1> 385 75<-183.925 -111.525> 460 92<117.498 164 348 389.936>
LayerCount: 2
Fore
SplineSet
316 92 m 4xfd
 362 92 460 92 460 164 c 5
 552 164 l 5xfd
 552 26 449 4 362 1 c 5
 362 -40 l 5
 364 -40 l 6
 385 -40 460 -40 460 -148 c 4
 460 -256 385 -256 316 -256 c 6
 203 -256 l 5
 203 -192 l 5
 316 -192 l 6
 360 -192 385 -181 385 -148 c 4xfe
 385 -115 365 -104 316 -104 c 6
 270 -104 l 5
 270 3 l 5
 153 21 80 110 80 256 c 4
 80 420 172 512 316 512 c 4
 408 512 552 512 552 348 c 5
 460 348 l 5
 460 420 362 420 316 420 c 4
 224 420 172 348 172 256 c 4
 172 164 224 92 316 92 c 4xfd
EndSplineSet
Validated: 1
EndChar

StartChar: eth
Encoding: 240 240 241
Width: 632
Flags: W
HStem: 0 92<229.696 402.304> 384 92<229.696 402.39> 748 20G<256.462 272.5 439.214 485.846>
VStem: 80 92<150.856 325.144> 460 92<151.375 324.625 424 509.033>
LayerCount: 2
Fore
SplineSet
460 424 m 1
 460 514 416 578 367 622 c 1
 226 540 l 1
 226 632 l 1
 298 671 l 1
 258 693 226 703 226 703 c 1
 270 768 l 1
 275 768 321 750 373 712 c 1
 476 768 l 1
 508 703 l 1
 434 660 l 1
 496 598 552 507 552 384 c 0
 552 329 552 275 552 238 c 0
 552 107 460 0 316 0 c 0
 172 0 80 92 80 238 c 0
 80 384 172 476 316 476 c 0
 373 476 436 449 460 424 c 1
316 92 m 0
 408 92 460 146 460 238 c 0
 460 330 408 384 316 384 c 0
 224 384 172 330 172 238 c 0
 172 146 224 92 316 92 c 0
EndSplineSet
Validated: 1
EndChar

StartChar: divide
Encoding: 247 247 248
Width: 632
Flags: W
HStem: 225 126<261.497 370.503> 420 92<80 552> 580 126<260.497 369.503>
VStem: 253 126<233.497 342.503 589.222 696.778>
LayerCount: 2
Fore
SplineSet
316 351 m 4
 362 351 379 334 379 288 c 4
 379 242 362 225 316 225 c 4
 270 225 253 242 253 288 c 4
 253 334 270 351 316 351 c 4
315 706 m 4
 361 706 378 689 378 643 c 4
 378 597 361 580 315 580 c 4
 269 580 252 597 252 643 c 4
 252 689 269 706 315 706 c 4
80 512 m 4
 552 512 l 4
 552 420 l 4
 80 420 l 4
 80 512 l 4
EndSplineSet
Validated: 1
EndChar

StartChar: oslash
Encoding: 248 248 249
Width: 632
Flags: W
HStem: 0 92<302 424.27> 420 92<207.73 330>
VStem: 80 92<130.347 377.324> 460 92<134.676 381.653>
LayerCount: 2
Fore
SplineSet
316 420 m 2
 224 420 172 420 172 256 c 0
 172 172 185 131 211 111 c 1
 330 420 l 1
 316 420 l 2
552 256 m 0
 552 0 460 0 316 0 c 2
 267 0 l 1
 218 -128 l 1
 120 -128 l 1
 175 15 l 1
 115 38 80 99 80 256 c 0
 80 512 172 512 316 512 c 2
 365 512 l 1
 414 640 l 1
 512 640 l 1
 457 497 l 1
 517 474 552 413 552 256 c 0
302 92 m 1
 316 92 l 2
 408 92 460 92 460 256 c 0
 460 340 447 381 421 401 c 1
 302 92 l 1
EndSplineSet
Validated: 1
EndChar

StartChar: thorn
Encoding: 254 254 255
Width: 632
VWidth: 0
Flags: W
HStem: 46 92<191.741 402.593> 374 92<191.741 402.593> 748 20G<80 172>
VStem: 80 92<-256 92 158.847 353.153 420 768> 460 92<194.129 317.871>
LayerCount: 2
Fore
SplineSet
80 768 m 5
 172 768 l 5
 172 420 l 5
 172 420 172 466 316 466 c 4
 552 466 552 256 552 256 c 5
 552 256 552 46 316 46 c 4
 172 46 172 92 172 92 c 5
 172 -256 l 5
 80 -256 l 5
 80 85 80 427 80 768 c 5
172 184 m 5
 172 184 172 138 316 138 c 4
 460 138 460 256 460 256 c 5
 460 256 460 374 316 374 c 4
 172 374 172 328 172 328 c 5
 172 184 l 5
EndSplineSet
Validated: 1
EndChar

StartChar: virtual.grave
Encoding: 257 -1 257
Width: 632
Flags: W
HStem: 558 210
VStem: 138 224
LayerCount: 2
Fore
SplineSet
237 736 m 0
 296 681 360 625 362 579 c 0
 362 573 361 568 357 564 c 0
 353 561 349 558 343 558 c 4
 341 558 l 4
 296 558 232 614 173 669 c 0
 173 669 139 702 138 732 c 0
 138 741 140 750 148 757 c 0
 155 764 164 768 172 768 c 0
 173 768 l 0
 204 768 237 736 237 736 c 0
EndSplineSet
Validated: 1
EndChar

StartChar: virtual.acute
Encoding: 258 -1 258
Width: 632
Flags: W
HStem: 558 210
VStem: 270 224
LayerCount: 2
Fore
SplineSet
395 736 m 0
 395 736 428 768 459 768 c 0
 460 768 l 0
 468 768 477 764 484 757 c 0
 492 750 494 741 494 732 c 0
 493 702 459 669 459 669 c 0
 400 614 336 558 291 558 c 4
 291 558 290 558 289 558 c 0
 283 558 279 561 275 564 c 0
 271 568 270 573 270 579 c 0
 272 625 336 681 395 736 c 0
EndSplineSet
Validated: 1
EndChar

StartChar: virtual.circum
Encoding: 259 -1 259
Width: 632
Flags: W
HStem: 558 210
LayerCount: 2
Fore
SplineSet
362 768 m 1
 512 558 l 1
 413 558 l 1
 316 683 l 1
 219 558 l 1
 120 558 l 5
 270 768 l 1
 362 768 l 1
EndSplineSet
Validated: 1
EndChar

StartChar: virtual.tilde
Encoding: 260 -1 260
Width: 632
Flags: W
HStem: 584 92<374.262 453.132> 676 92<179.403 257.575>
VStem: 80 92<628 669.247> 460 92<684.348 720>
LayerCount: 2
Fore
SplineSet
80 628 m 0x70
 80 628 80 768 221 768 c 3x70
 362 768 362 676 411 676 c 3
 460 676 460 720 460 720 c 0
 552 720 l 0
 552 717 552 584 411 584 c 3xb0
 270 584 270 676 220 676 c 3
 172 676 172 628 172 628 c 0
 80 628 l 0x70
EndSplineSet
Validated: 1
EndChar

StartChar: virtual.dieresis
Encoding: 261 -1 261
Width: 632
Flags: W
HStem: 580 126<133.497 242.503 389.497 498.503>
VStem: 125 126<588.497 697.503> 381 126<588.497 697.503>
LayerCount: 2
Fore
SplineSet
444 706 m 4
 490 706 507 689 507 643 c 4
 507 597 490 580 444 580 c 4
 398 580 381 597 381 643 c 4
 381 689 398 706 444 706 c 4
188 706 m 4
 234 706 251 689 251 643 c 4
 251 597 234 580 188 580 c 4
 142 580 125 597 125 643 c 4
 125 689 142 706 188 706 c 4
EndSplineSet
Validated: 1
EndChar

StartChar: virtual.capital.a
Encoding: 262 -1 262
Width: 632
VWidth: 0
Flags: W
HStem: 558 64<259.643 372.357> 704 64<259.643 372.357>
VStem: 188 64<632.064 693.936> 380 64<632.064 693.936>
LayerCount: 2
Fore
SplineSet
316 558 m 4
 188 558 188 663 188 663 c 4
 188 663 188 768 316 768 c 4
 444 768 444 663 444 663 c 4
 444 663 444 558 316 558 c 4
252 663 m 4
 252 663 252 622 316 622 c 7
 380 622 380 663 380 663 c 4
 380 663 380 704 316 704 c 4
 252 704 252 663 252 663 c 4
EndSplineSet
Validated: 1
EndChar

StartChar: virtual.cedilla
Encoding: 263 -1 263
Width: 632
Flags: W
HStem: -256 64<203 379.821> -104 64<362 380.598>
VStem: 270 92<-40 92> 385 75<-183.925 -111.525>
LayerCount: 2
Fore
SplineSet
362 92 m 5
 362 -40 l 5
 364 -40 l 6
 385 -40 460 -40 460 -148 c 4
 460 -256 385 -256 316 -256 c 6
 203 -256 l 5
 203 -192 l 5
 316 -192 l 6
 360 -192 385 -181 385 -148 c 4
 385 -115 365 -104 316 -104 c 6
 270 -104 l 5
 270 92 l 5
 362 92 l 5
EndSplineSet
Validated: 1
EndChar

StartChar: virtual.caron
Encoding: 264 -1 264
Width: 632
Flags: W
HStem: 558 210
LayerCount: 2
Fore
SplineSet
362 558 m 5
 270 558 l 5
 120 768 l 5
 219 768 l 5
 316 643 l 5
 413 768 l 5
 512 768 l 5
 362 558 l 5
EndSplineSet
Validated: 1
EndChar
